<svg width="1963" height="828" viewBox="0 0 1963 828" fill="none" xmlns="http://www.w3.org/2000/svg">
<rect width="1963" height="828" fill="#F8F6F3"/>
<g clip-path="url(#clip0_2021_445)">
<rect width="493.647" height="493.647" transform="matrix(0 1 -1 0 1228.29 167)" fill="#F8F6F3"/>
<path d="M1077.43 641.248C1106.81 628.814 1133.2 611.018 1155.86 588.351C1178.52 565.684 1196.31 539.289 1208.74 509.897C1220.68 481.67 1227.16 451.809 1228.03 421.039C1228.14 418.721 1228.22 416.398 1228.27 414.064C1228.27 412.2 1228.33 410.336 1228.25 408.477C1228.2 407.414 1228.1 406.351 1227.99 405.294C1226.97 374.989 1220.51 345.581 1208.75 317.755C1196.32 288.363 1178.53 261.968 1155.87 239.301C1133.21 216.634 1106.82 198.838 1077.44 186.404C1047.01 173.527 1014.7 167 981.39 167C948.078 167 915.765 173.527 885.347 186.398C855.965 198.832 829.579 216.629 806.919 239.296C784.259 261.963 766.469 288.358 754.039 317.75C741.171 348.177 734.647 380.506 734.647 413.823C734.647 447.141 741.171 479.47 754.039 509.897C766.469 539.289 784.259 565.684 806.919 588.351C829.579 611.018 855.965 628.814 885.347 641.248C915.765 654.12 948.084 660.647 981.39 660.647C1014.7 660.647 1047.01 654.12 1077.43 641.248ZM1021.52 171.86C1020.25 332.416 1020.34 495.087 1021.59 655.776C1012.2 657.325 1002.69 658.323 993.099 658.767C994.936 654.334 997.071 649.158 998.251 644.02C1002.06 627.399 1003.6 610.473 1004.7 593.521C1006.38 567.847 1006.92 542.125 1007.68 516.408C1008.3 494.99 1008.32 473.568 1008.53 452.161C1008.65 439.289 1008.79 426.353 1008.58 413.444C1008.34 398.121 1008.4 382.76 1008.29 367.421C1008.11 344.139 1008.03 320.847 1007.38 297.577C1006.67 272.218 1005.97 246.853 1003.57 221.564C1001.87 203.607 1000.04 185.742 993.083 168.88C1002.66 169.329 1012.15 170.322 1021.53 171.86H1021.52ZM1055.92 180.134C1055.21 180.967 1053.93 182.831 1053.26 184.129C1048.83 192.69 1045.82 201.535 1044.21 210.972C1039.85 236.497 1038.54 262.315 1037.44 288.123C1036.56 308.467 1036.43 328.837 1035.94 349.197C1035.72 358.037 1035.98 366.892 1035.67 375.715C1034.63 405.748 1035.4 435.78 1035.58 465.802C1035.71 486.151 1036.38 506.516 1037.12 526.866C1038.16 555.953 1039.32 585.008 1043.69 613.828C1045.29 624.344 1048.07 634.513 1052.94 644.063C1053.59 645.35 1054.21 646.648 1055.16 647.748C1045.66 650.75 1036 653.159 1026.21 654.964C1025.82 649.554 1025.27 643.641 1025.09 638.108C1024.55 621.844 1024 605.576 1023.78 589.307C1023.53 570.459 1023.91 551.605 1023.47 532.762C1023.19 520.205 1023.11 507.649 1023.08 495.097C1022.95 434.087 1022.85 373.077 1023.15 312.067C1023.21 299.521 1023.22 286.959 1023.5 274.407C1023.87 257.893 1023.31 241.352 1023.89 224.854C1024.37 211.261 1024.86 197.593 1025.23 183.974C1025.33 180.096 1025.32 176.379 1025.36 172.523C1025.36 172.523 1025.35 172.517 1025.35 172.512C1035.7 174.381 1045.9 176.924 1055.94 180.128L1055.92 180.134ZM1091.88 632.788C1090.95 632.19 1089.93 631.693 1089.24 631.277C1085.65 629.119 1082.17 626.694 1079.53 623.351C1072.3 614.223 1068.43 603.552 1065.58 592.421C1060.56 572.718 1058.41 552.598 1056.76 532.399C1054.9 509.652 1053.69 486.861 1053.24 464.061C1052.73 438.232 1052.87 412.387 1053 386.547C1053.08 370.487 1053.26 354.405 1054.11 338.371C1055.18 317.92 1056.23 297.459 1058.54 277.083C1060.82 257.028 1063.68 237.101 1071.45 218.316C1075.25 209.135 1080.92 201.225 1090.37 196.84C1091.22 196.445 1092.06 195.975 1093.04 195.441C1103.35 200.718 1113.23 206.7 1122.66 213.365C1111.59 212.511 1102.14 216.271 1094.98 224.79C1089.82 230.937 1086.16 238.083 1083.36 245.748C1077.69 261.279 1074.66 277.414 1072.46 293.651C1068.2 325.168 1066.65 356.931 1066.13 388.699C1065.55 424.783 1066.03 460.867 1068.76 496.887C1070.64 521.626 1073.16 546.253 1079.54 570.336C1082.57 581.787 1086.61 592.795 1094.01 602.206C1101.04 611.146 1110.29 615.59 1121.76 614.906C1112.25 621.567 1102.28 627.538 1091.88 632.788H1091.88ZM1146.18 586.93C1135.08 589.521 1125.25 586.893 1117.04 579.346C1107.86 570.897 1103.19 559.558 1099.45 548.005C1094.91 534.033 1092.31 519.586 1090.4 505.021C1087.2 480.645 1085.57 456.156 1085.19 431.582C1084.75 403.515 1085.21 375.48 1087.78 347.499C1089.61 327.662 1091.93 307.922 1097.1 288.63C1100.9 274.488 1105.56 260.692 1116.14 249.935C1122.51 243.451 1130.3 239.808 1139.61 240.46C1145.92 240.898 1152.01 242.404 1157.77 245.144C1158.32 245.406 1159.22 245.668 1160.01 245.865C1171.15 257.701 1181.01 270.492 1189.52 284.144C1179.78 274.274 1168.82 266.3 1154.44 264.254C1145.1 262.924 1136.93 266.332 1130.34 272.869C1121.51 281.634 1116.7 292.812 1113.15 304.461C1104.53 332.763 1102.11 361.989 1100.87 391.348C1100.06 410.432 1100.36 429.515 1101.5 448.593C1102.99 473.397 1105.55 498.019 1112.65 521.946C1116.22 533.98 1120.89 545.516 1129.77 554.746C1136.51 561.753 1144.91 565.465 1154.63 563.927C1168.49 561.737 1179.38 554.585 1188.61 544.923C1180.14 558.303 1170.37 570.843 1159.36 582.455C1154.65 584.383 1150.51 585.91 1146.18 586.925V586.93ZM1211.84 483.598C1205.44 497.474 1197.29 510.138 1184.73 519.388C1179.48 523.25 1173.74 526.07 1167.14 526.385C1155.72 526.93 1148.49 520.157 1142.87 511.43C1135.45 499.899 1131.86 486.867 1129.31 473.536C1125.56 453.924 1124.04 434.108 1124.26 413.433C1123.95 392.78 1125.73 371.576 1130.1 350.661C1132.56 338.905 1136.21 327.486 1142.58 317.119C1145.76 311.955 1149.82 307.682 1155.05 304.686C1164.39 299.345 1173.34 301.689 1181.76 306.891C1194.13 314.54 1202.31 326.007 1208.86 338.638C1220.26 360.616 1225.52 384.117 1226.13 408.846C1226.77 434.851 1222.76 459.889 1211.83 483.598H1211.84ZM1207.27 318.374C1213.97 334.227 1218.94 350.602 1222.15 367.362C1219.67 358.127 1216.36 349.101 1212.13 340.31C1205.2 325.879 1196.57 312.569 1183.02 303.473C1165.68 291.83 1151.38 295.681 1140.57 311.992C1133 323.416 1129.39 336.523 1126.76 349.817C1121.77 375.037 1120.26 400.53 1121.09 426.214C1121.53 439.727 1122.58 453.16 1124.68 466.507C1127.38 483.716 1130.92 500.721 1140.29 515.751C1145.33 523.843 1151.93 530.38 1162.24 531.234C1168.35 531.742 1174 530.065 1179.28 527.111C1190.05 521.087 1197.86 512.05 1204.36 501.838C1212.35 489.27 1217.97 476.041 1221.74 462.304C1218.52 478.364 1213.69 494.056 1207.25 509.278C1203.17 518.929 1198.5 528.254 1193.27 537.232C1185.1 545.954 1176.25 553.8 1164.8 557.939C1153.6 561.988 1143.05 561 1133.84 552.737C1124.86 544.678 1120.08 534.076 1116.4 522.956C1108.17 498.088 1105.49 472.275 1104.13 446.297C1102.56 416.371 1103.04 386.477 1106.11 356.643C1107.94 338.868 1111.01 321.344 1116.69 304.392C1119.91 294.773 1124.22 285.65 1131.25 277.986C1139.18 269.333 1148.86 266.545 1160.03 268.895C1169.25 270.834 1176.88 276.026 1183.98 282.013C1187.55 285.025 1190.77 288.401 1194.04 291.744C1198.96 300.311 1203.37 309.199 1207.25 318.374H1207.27ZM1154.73 240.428C1155.18 240.877 1155.63 241.325 1156.07 241.779C1146.1 237.154 1135.79 235.028 1124.82 239.29C1114.61 243.259 1108.47 251.495 1103.79 260.75C1097.28 273.612 1093.71 287.498 1091.11 301.63C1087.9 319.047 1085.97 336.609 1084.54 354.261C1082.89 374.717 1082.4 395.205 1082.44 415.677C1082.47 435.684 1083.05 455.702 1084.67 475.693C1086.69 500.812 1089.79 525.723 1096.71 550.008C1098.58 556.594 1101.27 563.008 1104.6 568.995C1107.59 574.352 1110.95 579.565 1115.83 583.566C1128.01 593.543 1140.92 592.72 1154.8 587.149C1154.78 587.171 1154.76 587.197 1154.73 587.219C1145.79 596.165 1136.27 604.342 1126.2 611.729C1123.89 611.729 1121.94 611.723 1119.98 611.729C1110.93 611.771 1103.8 607.434 1098.03 601.105C1090.27 592.597 1086.01 582.065 1082.86 571.153C1075.16 544.485 1072.33 517.022 1070.66 489.489C1068.88 460.098 1068.19 430.653 1068.64 401.176C1069.14 368.457 1069.98 335.775 1074.04 303.265C1076.73 281.751 1079.88 260.302 1089.29 240.46C1096.17 225.927 1107.27 214.706 1125.62 216.548C1125.91 216.58 1126.61 216.645 1127.17 216.629C1136.87 223.828 1146.07 231.765 1154.73 240.423L1154.73 240.428ZM1076.81 187.873C1080.88 189.592 1084.89 191.419 1088.83 193.347C1088.39 193.454 1087.94 193.625 1087.49 193.881C1082.67 196.568 1078.32 199.879 1075.05 204.382C1068.98 212.73 1065.78 222.397 1063.27 232.198C1059.5 246.981 1057.55 262.102 1055.92 277.286C1052.8 306.25 1051.45 335.327 1050.88 364.398C1050.17 399.889 1050.04 435.406 1051.18 470.913C1051.99 496.166 1053.07 521.38 1055.49 546.536C1057.6 568.354 1060.2 590.071 1068.03 610.746C1071.61 620.199 1077.06 628.302 1086.01 633.616C1086.72 634.038 1087.44 634.39 1088.17 634.631C1084.44 636.436 1080.65 638.156 1076.81 639.78C1070.84 642.306 1064.79 644.581 1058.68 646.616C1052.72 637.894 1049.51 627.196 1047.43 617.011C1043.81 599.311 1042.29 581.306 1041.27 563.312C1039.93 539.85 1039.16 516.349 1038.4 492.854C1037.92 477.985 1037.79 463.105 1037.74 448.225C1037.64 419.602 1037.32 390.964 1037.91 362.352C1038.16 350.271 1038.4 338.163 1038.77 326.071C1039.69 295.707 1040.63 265.354 1043.95 235.14C1046.02 216.313 1048.34 197.513 1059.47 181.303C1065.31 183.269 1071.09 185.464 1076.81 187.878V187.873ZM899.288 642.455C917.773 639.005 930.16 627.613 938.809 611.552C948.1 594.301 952.462 575.469 955.842 556.417C959.6 535.208 961.757 513.807 963.108 492.293C964.513 469.979 965.644 447.669 965.639 425.317C965.634 403.553 965.559 381.799 964.448 360.029C963.477 340.962 962.313 321.926 960.252 302.955C958.784 289.421 956.68 275.988 953.984 262.62C950.695 246.314 946.316 230.424 938.302 215.806C928.659 198.218 914.478 186.836 893.773 185.085C893.516 185.063 893.26 185.042 893.004 185.031C902.481 181.362 912.129 178.302 921.927 175.855C922.541 176.224 923.576 176.683 923.961 176.827C937.229 181.795 946.087 191.403 952.579 203.655C956.808 211.635 959.867 220.047 962.249 228.699C968.047 249.759 970.893 271.347 972.975 293.026C974.422 308.082 975.346 323.187 976.061 338.307C977.172 361.807 977.69 385.313 977.807 408.83C977.909 428.97 977.476 449.106 976.846 469.242C976.083 493.452 974.812 517.61 972.233 541.703C969.798 564.423 966.718 587.021 959.317 608.764C954.448 623.068 947.785 636.276 935.141 645.51C931.42 648.229 927.271 650.184 922.786 651.978C922.808 652 922.829 652.01 922.85 652.032C913.181 649.66 903.65 646.691 894.296 643.128C896.021 643.187 897.692 642.76 899.288 642.461V642.455ZM929.321 652.09C940.828 647.038 948.607 638.215 954.48 627.372C963.562 610.602 967.321 592.218 970.477 573.743C973.573 555.621 975.132 537.302 976.558 518.95C979.126 485.954 979.596 452.903 980.098 419.853C980.285 407.414 979.842 394.964 979.655 382.52C979.302 359.468 978.56 336.438 976.9 313.439C975.084 288.235 972.756 263.122 967.305 238.377C964.336 224.896 960.54 211.752 953.802 199.623C947.753 188.727 939.535 180.128 927.688 175.465C927.116 175.241 926.55 175.033 925.99 174.883C935.595 172.661 945.339 171.027 955.196 169.986C955.164 170.007 955.137 170.023 955.11 170.044C961.33 174.953 965.997 180.908 969.633 187.792C976.483 200.766 979.495 214.882 982.079 229.078C985.918 250.17 987.669 271.523 988.982 292.898C990.723 321.248 991.556 349.646 991.866 378.044C992.314 419.373 992.138 460.701 990.552 502.014C989.666 525.156 988.432 548.278 985.966 571.313C984.241 587.411 981.961 603.434 977.727 619.083C974.422 631.287 970.023 643.054 961.234 652.598C959.611 654.36 957.838 655.995 956.061 657.763C956.061 657.763 956.061 657.763 956.066 657.763C946.274 656.764 936.594 655.178 927.047 653.02C927.826 652.795 928.579 652.427 929.321 652.101V652.09ZM856.702 203.143C857.626 203.046 858.544 202.891 859.463 202.774C870.675 201.332 881.733 201.321 892.39 205.936C908.867 213.066 918.355 226.536 925.44 242.196C933.032 258.983 937.128 276.768 940.219 294.815C945.932 328.165 947.966 361.845 948.543 395.611C949.002 422.615 948.596 449.619 946.679 476.58C944.512 507.157 941.191 537.553 932.472 567.089C928.462 580.665 923.112 593.676 914.334 604.978C904.985 617.011 892.998 624.446 877.568 626.037C870.798 626.737 864.15 625.829 857.311 625.3C857.322 625.337 857.338 625.364 857.348 625.402C847.273 619.484 837.646 612.856 828.5 605.533C838.623 610.094 849.222 612.904 860.402 612.546C881.989 611.862 896.896 600.448 907.511 582.364C916.897 566.368 921.975 548.849 925.755 530.919C930.832 506.847 933.401 482.412 934.8 457.881C936.327 431.123 936.588 404.338 935.163 377.569C933.956 354.902 932.002 332.314 928.061 309.909C924.105 287.434 918.931 265.402 907.238 245.491C899.117 231.653 888.182 221.168 872.01 217.296C856.072 213.483 841.24 216.97 826.866 223.449C835.97 216.036 845.564 209.306 855.602 203.297C856.008 203.276 856.611 203.159 856.713 203.148L856.702 203.143ZM791.697 259.362C799.711 252.712 808.344 247.051 817.838 242.714C830.833 236.775 844.336 234.371 858.293 238.115C874.898 242.564 885.112 254.566 892.966 269.045C902.476 286.58 907.329 305.658 910.752 325.067C914.494 346.281 916.358 367.72 917.297 389.282C918.184 409.673 918.082 430.044 916.806 450.366C915.413 472.542 913.122 494.665 908.039 516.408C903.853 534.316 898.418 551.701 888.209 567.201C874.434 588.111 853.509 596.288 829.771 589.847C816.786 586.327 805.301 579.715 794.809 571.345C793.694 570.453 792.556 569.588 791.136 568.493C780.474 555.402 771.237 541.313 763.505 526.321C766.714 531.106 770.233 535.678 774.056 540.031C785.653 553.213 798.883 564.199 815.472 570.64C837.385 579.143 858.678 573.273 872.549 555.055C879.469 545.965 884.445 535.886 888.209 525.183C895.593 504.188 899.277 482.428 901.381 460.343C903.613 436.891 904.083 413.428 902.897 389.89C901.595 364.008 898.728 338.409 891.503 313.423C887.002 297.86 881.033 283.006 870.312 270.567C861.572 260.425 850.647 254.421 837 253.834C826.172 253.369 816.263 256.494 806.924 261.498C787.804 271.742 773.431 286.67 761.957 304.386C769.731 288.796 779.107 274.151 789.999 260.574C790.698 260.19 791.195 259.789 791.697 259.378V259.362ZM755.513 509.272C742.73 479.042 736.248 446.927 736.248 413.823C736.248 380.72 742.73 348.605 755.513 318.374C756.025 317.162 756.548 315.96 757.077 314.759C761.087 308.2 765.118 301.914 769.72 296.022C781.435 281.03 795.162 268.425 812.995 261.146C830.145 254.144 846.718 254.795 861.689 266.839C868.956 272.682 874.279 280.197 878.588 288.428C888.839 307.997 893.714 329.211 896.779 350.821C901.007 380.634 901.963 410.624 900.276 440.715C898.808 466.956 895.657 492.891 887.633 518.026C883.431 531.197 877.851 543.706 868.79 554.377C858.923 565.994 846.638 572.13 831.127 571.351C818.441 570.715 807.512 565.54 797.266 558.596C782.476 548.571 770.991 535.384 761.402 520.44C760.339 518.785 759.282 517.118 758.171 515.361C757.258 513.347 756.367 511.323 755.502 509.283L755.513 509.272ZM808.051 587.219C803.843 583.01 799.802 578.668 795.936 574.203C806.187 582.236 817.421 588.522 830.054 592.17C852.975 598.787 872.795 592.239 887.435 573.402C897.275 560.743 902.844 546.05 907.062 530.85C916.374 497.303 919.252 462.864 920.133 428.244C920.667 407.185 920.117 386.12 918.243 365.097C915.861 338.366 912.327 311.88 903.586 286.355C899.181 273.483 893.42 261.311 884.29 251.035C872.165 237.378 856.932 231.551 838.88 234.232C821.863 236.759 807.426 244.781 794.324 255.335C798.68 250.202 803.256 245.23 808.056 240.428C812.952 235.53 818.03 230.857 823.268 226.419C825.136 225.831 826.754 225.206 828.335 224.523C840.578 219.192 853.365 217.002 866.558 218.984C883.708 221.558 895.449 232.032 904.344 246.287C913.731 261.333 918.862 277.997 922.685 295.088C929.215 324.266 932.071 353.935 932.995 383.754C934.127 420.318 933.732 456.845 929.22 493.255C926.187 517.706 922.162 541.858 912.983 564.883C908.942 575.02 903.752 584.511 896.4 592.619C880.163 610.516 860.018 613.059 837.844 607.061C833.29 605.827 828.922 604.011 824.149 601.885C824.159 601.923 824.17 601.949 824.181 601.981C818.617 597.319 813.246 592.4 808.067 587.219H808.051ZM885.972 639.774C877.483 636.185 869.249 632.137 861.278 627.655C863.718 628.024 866.174 628.36 868.635 628.51C884.504 629.503 898.53 625.14 910.18 614.025C920.565 604.112 926.737 591.636 931.473 578.379C938.516 558.666 942.045 538.188 944.912 517.503C948.222 493.591 950.022 469.573 950.604 445.512C951.912 391.343 950.865 337.266 940.55 283.797C936.877 264.74 931.98 246.057 921.889 229.249C907.628 205.487 886.437 195.825 860.231 200.67C860.151 200.686 860.071 200.702 859.986 200.712C868.352 195.943 877.018 191.654 885.961 187.867C886.768 187.525 887.574 187.194 888.385 186.858C890.788 187.077 892.838 187.194 894.857 187.488C915.696 190.548 928.921 203.297 937.992 221.382C946.017 237.378 950.225 254.55 953.396 271.988C959.099 303.318 961.394 335.001 962.494 366.78C963.37 392.032 963.551 417.29 962.948 442.563C962.153 476.099 960.551 509.545 955.516 542.76C952.174 564.819 947.95 586.599 937.971 606.804C931.286 620.333 922.06 631.41 907.665 637.307C902.113 639.582 896.287 640.752 889.742 641.323C888.476 640.81 887.216 640.298 885.956 639.763L885.972 639.774ZM959.98 658.126C960.375 657.885 960.77 657.581 961.165 657.229C968.325 650.851 972.804 642.701 976.077 633.926C982.383 617.022 985.127 599.311 987.343 581.499C990.451 556.529 991.796 531.421 992.736 506.313C993.724 480.03 994.119 453.715 994.268 427.411C994.439 396.914 994.124 366.422 993.051 335.93C992.255 313.247 991.406 290.575 989.458 267.961C987.503 245.219 985.026 222.552 978.245 200.616C974.732 189.245 969.74 178.713 960.674 170.562C960.241 170.173 959.809 169.836 959.36 169.58C966.648 168.933 973.99 168.608 981.39 168.608C983.867 168.608 986.339 168.65 988.806 168.72C991.145 174.798 993.83 180.716 995.352 187.125C1000.41 208.419 1001.87 230.136 1003.07 251.852C1004.19 272.073 1005.15 292.31 1005.22 312.574C1005.25 320.719 1005.59 328.864 1005.72 337.015C1005.95 352.146 1006.17 367.282 1006.3 382.413C1006.39 393.816 1006.32 405.214 1006.31 416.617C1006.29 430.696 1006.34 444.78 1006.22 458.859C1006.11 471.779 1005.86 484.704 1005.59 497.624C1005.2 516.36 1005.06 535.112 1004.21 553.832C1003.33 573.241 1002.61 592.677 1000.25 611.99C998.385 627.25 996.447 642.509 989.949 656.71C989.757 657.132 989.223 658.137 989.014 658.922C986.478 658.996 983.937 659.039 981.385 659.039C974.198 659.039 967.054 658.735 959.969 658.12L959.98 658.126Z" fill="black"/>
<path d="M807.697 547.957C823.069 553.912 837.378 552.011 850.257 541.414C856.007 536.682 860.172 530.642 863.893 524.297C871.705 510.971 875.88 496.315 879.083 481.371C883.835 459.211 885.645 436.742 885.539 414.096C885.48 388.181 883.312 362.513 876.804 337.324C873.109 323.027 868.117 309.332 859.536 297.155C853.177 288.128 845.179 281.244 834.319 278.381C819.257 274.407 806.058 279.332 793.826 287.658C777.322 298.885 765.784 314.454 756.926 331.994C740.759 364.019 735.089 398.03 738.8 433.66C741.971 464.125 751.459 492.251 769.847 517.022C779.853 530.497 791.765 541.778 807.708 547.957H807.697ZM740.54 392.011C743.717 363.746 752.826 337.575 769.773 314.492C778.823 302.165 789.496 291.547 803.666 285.036C823.683 275.844 843.172 280.972 856.258 298.634C864.363 309.573 869.457 321.873 873.098 334.83C878.667 354.64 881.267 374.92 882.362 395.44C882.698 401.726 882.853 407.996 882.858 414.288C882.677 442.446 880.135 470.32 871.918 497.399C868.602 508.332 863.963 518.705 857.31 528.174C841.847 550.184 818.632 552.956 796.907 539.625C781.754 530.327 770.622 517.049 761.887 501.848C742.286 467.725 736.189 430.808 740.546 392.011H740.54Z" fill="black"/>
<path d="M1162.02 351.328C1158.22 356.039 1156.03 361.578 1154.1 367.18C1148.96 382.221 1147.82 397.886 1147.72 413.631C1147.72 416.884 1147.56 420.152 1147.75 423.394C1148.71 440.213 1150.64 456.882 1158.84 471.998C1166.15 485.489 1178.64 490.931 1191.96 477.643C1197.24 472.377 1201.05 466.133 1203.88 459.318C1214.75 433.147 1215.66 406.41 1207.72 379.358C1204.34 367.848 1199.34 357.097 1190.12 348.92C1180.29 340.208 1170.25 341.143 1162.02 351.328ZM1187.22 354.303C1193.52 358.565 1197.46 364.777 1200.63 371.421C1206.16 383.017 1208.78 395.349 1209.24 408.183C1209.83 424.302 1208.2 440.048 1201.51 454.922C1198.44 461.748 1194.68 468.173 1188.61 472.879C1180.25 479.363 1171.2 478.134 1164.94 469.567C1161.2 464.44 1158.74 458.65 1156.98 452.588C1153.31 439.973 1152.01 427.048 1152.13 419.063C1152.23 397.902 1153.68 382.098 1160.17 367.164C1162.08 362.774 1164.29 358.555 1168.02 355.361C1174.05 350.201 1180.59 349.812 1187.22 354.303H1187.22Z" fill="black"/>
<path d="M842.719 506.714C850.434 496.459 854.802 484.693 858.048 472.51C863.142 453.395 864.77 433.809 865.139 414.229C864.818 396.123 863.419 378.263 859.308 360.75C855.72 345.469 850.568 330.814 840.3 318.46C830.07 306.154 815.505 302.255 800.71 308.269C787.581 313.605 778.167 323.363 770.479 334.841C758.247 353.096 751.727 373.467 749.143 395.173C745.598 424.927 749.821 453.47 762.983 480.468C769.854 494.568 779.016 506.965 792.413 515.676C810.956 527.736 829.44 524.366 842.724 506.714H842.719ZM794.548 513.091C784.142 506.981 776.352 498.323 770.03 488.229C757.633 468.435 751.727 446.697 750.313 423.491C748.866 399.825 752.288 377.008 761.867 355.334C768.968 339.258 778.461 324.874 794.025 315.496C810.443 305.599 827.459 308.814 839.291 323.876C848.219 335.247 852.837 348.476 856.163 362.235C860.285 379.278 861.823 396.641 861.823 418.187C861.599 435.785 859.634 457.155 852.8 477.83C849.607 487.486 845.48 496.646 839.04 504.716C827.449 519.244 810.555 522.497 794.543 513.096L794.548 513.091Z" fill="black"/>
<path d="M829.478 462.48C836.371 447.092 838.57 430.84 838.592 411.601C838.549 403.916 837.673 394.366 835.634 384.693C833.253 373.408 829.563 362.518 821.773 353.561C814.218 344.871 801.441 342.9 791.676 349.005C781.269 355.516 775.364 365.541 771.146 376.554C762.758 398.463 761.984 420.82 768.332 443.37C771.718 455.392 777.035 466.395 786.278 475.197C797.229 485.622 809.648 486.044 820.449 476.051C824.523 472.28 827.214 467.516 829.472 462.48H829.478ZM786.63 468.798C777.324 459.382 772.166 447.685 769.747 434.91C765.38 411.842 766.992 389.458 779.331 368.767C782.503 363.447 786.374 358.64 791.815 355.35C801.302 349.614 810.78 350.773 818.324 358.929C825.505 366.694 828.613 376.42 831.176 386.435C834.902 400.994 837.011 439.764 824.784 459.852C823.402 462.127 822.216 464.568 820.604 466.683C811.287 478.903 797.501 479.795 786.63 468.798Z" fill="black"/>
</g>
<g clip-path="url(#clip1_2021_445)">
<rect width="493.647" height="493.647" transform="matrix(0 1 -1 0 1820.94 167)" fill="#F8F6F3"/>
<path d="M1350.18 471.923C1356.08 482.77 1363.13 492.817 1371.51 501.843C1377.2 507.969 1383.28 513.743 1389.77 519.089C1400.37 527.821 1411.67 535.47 1423.78 541.916C1434.85 547.807 1446.39 552.641 1458.26 556.652C1471.92 561.261 1485.86 564.664 1500.13 566.763C1519.36 569.593 1538.61 570.288 1557.91 567.601C1577.21 564.915 1595.36 559.178 1611.08 547.167C1620.46 539.994 1627.92 531.154 1633.62 520.83C1641.46 506.639 1645.79 491.241 1648.61 475.426C1652.22 455.152 1653.61 434.664 1653.48 414.069C1653.48 409.935 1653.65 405.79 1653.45 401.667C1652.77 387.893 1651.97 374.129 1649.9 360.467C1647.23 342.884 1643.13 325.761 1635.03 309.765C1624.9 289.768 1609.09 276.175 1588.43 267.966C1573.2 261.915 1557.24 259.41 1541 258.689C1524.65 257.968 1508.42 259.383 1492.33 262.369C1467.54 266.967 1443.98 275.086 1421.76 287.065C1407.33 294.847 1394.17 304.397 1382.12 315.437C1374.3 322.588 1367.14 330.36 1360.9 338.996C1351.96 351.371 1344.87 364.622 1340.46 379.278C1335.62 395.333 1334.06 411.682 1336.14 428.308C1338.05 443.711 1342.76 458.266 1350.18 471.933L1350.18 471.923ZM1338.86 393.015C1341.75 376.976 1347.83 362.181 1356.46 348.46C1363.56 337.191 1372 326.963 1381.8 317.894C1394.65 306.01 1408.67 295.761 1424.12 287.562C1441.89 278.125 1460.65 271.208 1480.24 266.567C1499.66 261.963 1519.35 259.784 1539.31 260.505C1557.08 261.146 1574.36 264.243 1590.75 271.486C1608.25 279.22 1621.9 291.253 1631.33 307.938C1637.2 318.3 1640.99 329.457 1643.98 340.945C1646.9 352.199 1648.57 363.666 1649.73 375.181C1651.04 388.032 1651.97 400.935 1651.6 412.045C1651.75 435.54 1650.13 457.069 1645.93 478.316C1642.97 493.217 1638.5 507.675 1630.75 520.9C1622.58 534.85 1611.42 545.698 1597.06 553.229C1581.53 561.368 1564.9 565.411 1547.54 566.784C1519.44 569.006 1492 565.369 1465.12 557.128C1443.39 550.462 1422.91 541.121 1404.23 528.04C1392.28 519.666 1381.08 510.351 1371.45 499.381C1357.32 483.31 1346.57 465.241 1340.99 444.411C1336.45 427.459 1335.73 410.32 1338.86 393.015Z" fill="black"/>
<path d="M1792.74 343.269C1787.25 339.343 1781.14 337.153 1774.29 337.399C1766.15 337.687 1760.34 342.067 1755.65 348.241C1749.68 356.125 1746.75 365.348 1744.66 374.818C1741.84 387.594 1740.84 400.588 1740.73 414.459C1740.78 420.233 1741.07 426.802 1741.71 433.35C1742.79 444.32 1744.42 455.179 1748.31 465.578C1750.67 471.891 1753.65 477.814 1758.36 482.792C1763.15 487.85 1768.91 490.643 1775.87 490.472C1783.24 490.29 1789.65 487.337 1795.27 482.669C1803.83 475.555 1809.1 466.352 1812.38 455.825C1816.18 443.637 1817.12 431.069 1817.66 418.443C1817.94 411.692 1817.48 404.957 1816.99 398.222C1816.35 389.255 1814.98 380.431 1812.31 371.816C1808.74 360.264 1802.72 350.394 1792.74 343.263L1792.74 343.269ZM1816.26 399.018C1816.67 405.053 1817.12 411.099 1816.89 417.145C1816.39 430.3 1815.63 443.423 1811.32 456.044C1808.28 464.937 1803.92 473.002 1796.85 479.379C1791.49 484.207 1785.45 487.599 1778.08 488.17C1767.61 488.982 1760.59 483.534 1755.37 475.298C1749.59 466.149 1746.83 455.873 1744.99 445.292C1743.19 434.926 1742.63 424.479 1742.47 415.335C1742.52 399.504 1743.73 385.137 1747.5 371.095C1749.51 363.586 1752.33 356.349 1757.06 350.073C1760.47 345.544 1764.59 341.752 1770.3 340.337C1777.72 338.494 1784.65 340.005 1791.03 344.038C1800.24 349.87 1806.15 358.314 1810.06 368.35C1813.91 378.226 1815.56 388.523 1816.27 399.023L1816.26 399.018Z" fill="black"/>
<path d="M1375.49 489.521C1380.91 496.021 1386.8 502.078 1393 507.777C1401.64 515.708 1411.32 522.31 1421.44 528.217C1432.12 534.444 1443.27 539.673 1454.88 543.941C1477.29 552.177 1500.41 556.401 1524.63 556.759C1534.35 556.572 1544.37 555.798 1554.29 553.859C1566.78 551.418 1578.68 547.412 1589.68 540.875C1602.05 533.52 1611.67 523.458 1619.34 511.361C1624.25 503.616 1627.56 495.177 1630.47 486.573C1636.72 468.168 1639.01 449.047 1640.15 429.777C1640.94 416.403 1640.79 403.024 1639.52 389.666C1638.76 381.729 1637.99 373.809 1636.6 365.947C1633.75 349.908 1629.28 334.424 1621.42 320.073C1616.41 310.908 1609.98 302.779 1602.11 295.916C1591.22 286.414 1578.53 280.186 1564.64 276.389C1545.84 271.251 1526.69 270.081 1507.34 271.945C1489.23 273.692 1471.62 277.692 1454.54 284.021C1438.25 290.062 1422.9 297.881 1408.65 307.837C1403.02 311.773 1397.43 315.795 1392.47 320.543C1387.01 325.766 1381.62 331.075 1376.72 336.876C1366.52 348.973 1358.56 362.342 1353.36 377.302C1348.47 391.37 1346.26 405.801 1347.24 420.735C1348.19 435.225 1351.86 448.978 1358.05 462.037C1362.72 471.896 1368.48 481.109 1375.5 489.527L1375.49 489.521ZM1351.7 389.527C1354.97 375.785 1360.62 363.137 1368.24 351.254C1375.03 340.678 1383.25 331.364 1392.4 322.882C1403.95 312.184 1417 303.564 1430.96 296.305C1445.85 288.561 1461.48 282.782 1477.78 278.776C1492.26 275.219 1506.95 273.232 1521.84 273.099C1536.82 272.965 1551.6 274.626 1565.98 279.059C1580.69 283.594 1593.92 290.767 1604.74 301.807C1614.35 311.613 1621.27 323.165 1626.2 336.032C1631.86 350.837 1635.03 366.176 1636.78 381.836C1637.97 392.481 1638.87 403.163 1638.32 412.51C1638.65 429.724 1637.35 445.415 1634.61 461C1632.17 474.892 1628.38 488.384 1622.2 501.074C1611.07 523.907 1593.47 539.518 1569.3 547.626C1556.38 551.958 1543.13 554.046 1529.54 554.537C1511.47 555.194 1493.76 553.015 1476.26 548.646C1456.99 543.834 1438.77 536.442 1421.65 526.337C1412.51 520.942 1403.78 514.961 1395.8 507.937C1389.11 502.051 1382.93 495.68 1377.22 488.806C1371.6 482.049 1366.89 474.743 1362.65 467.1C1356.38 455.788 1352.34 443.669 1350.22 430.936C1347.89 417.049 1348.44 403.238 1351.7 389.517L1351.7 389.527Z" fill="black"/>
<path d="M1764.66 362.673C1761.84 366.641 1759.68 370.946 1758.09 375.534C1753.76 387.946 1752.6 400.839 1752.23 414.4C1752.61 423.806 1753.19 433.724 1755.53 443.466C1757.62 452.156 1760.6 460.418 1766.42 467.388C1771.95 474 1780.3 476.366 1788.14 473.594C1793.92 471.544 1798.13 467.49 1801.7 462.731C1806.35 456.514 1808.99 449.368 1810.63 441.853C1814.32 424.874 1814.53 407.788 1811.58 390.702C1809.68 379.732 1806.21 369.429 1798.28 361.054C1788.44 350.671 1773.87 349.721 1764.65 362.678L1764.66 362.673ZM1808.93 383.599C1811.66 393.533 1812.91 403.676 1812.62 413.252C1812.81 425.664 1811.42 437.126 1807.68 448.209C1804.77 456.84 1800.09 464.253 1792.26 469.375C1785.46 473.824 1776.55 473.114 1770.4 467.799C1764.84 462.993 1761.94 456.631 1759.51 450.009C1756.46 441.698 1755.2 432.998 1754.56 424.206C1753.67 412.13 1754.22 400.124 1756.64 388.256C1758.32 379.994 1760.95 372.019 1765.85 365.044C1769.47 359.89 1774.1 356.055 1780.79 355.575C1784.88 355.281 1788.68 356.162 1792.1 358.357C1801.37 364.312 1806.13 373.365 1808.94 383.604L1808.93 383.599Z" fill="black"/>
<path d="M1406.79 503.83C1419.34 514.154 1433.13 522.385 1448.07 528.698C1467.6 536.955 1488 541.783 1509.16 542.963C1523.53 543.765 1537.77 542.622 1551.75 538.883C1566.7 534.888 1580.09 528.035 1591.56 517.626C1600.44 509.566 1606.91 499.739 1612.06 488.987C1616.31 480.121 1619.15 470.764 1621.41 461.236C1625.1 445.699 1626.54 429.916 1626.48 413.968C1626.48 411.933 1626.5 409.898 1626.48 407.863C1626.37 399.761 1625.52 391.722 1624.48 383.7C1622.3 366.903 1618.01 350.762 1610.34 335.535C1604.72 324.378 1597.27 314.807 1587.65 306.891C1577.27 298.351 1565.44 292.695 1552.53 289.17C1532.87 283.802 1512.97 283.541 1492.96 286.574C1461.66 291.322 1433.26 302.971 1408.36 322.728C1402.12 327.679 1396.1 332.881 1390.83 338.916C1381.67 349.416 1373.83 360.718 1368.36 373.638C1361.32 390.307 1358.71 407.569 1360.68 425.536C1362.13 438.67 1366.28 450.975 1372.3 462.656C1377.72 473.173 1384.89 482.498 1392.86 491.182C1397.1 495.808 1401.94 499.84 1406.79 503.835V503.83ZM1362.07 409.796C1362.69 394.137 1367.09 379.577 1374.29 365.76C1380.73 353.395 1389.25 342.585 1399.27 333.004C1408.84 323.838 1419.59 316.179 1431.13 309.615C1450.14 298.811 1470.51 292.054 1492.04 288.609C1500.16 287.311 1508.35 286.879 1515.89 286.692C1534.61 286.713 1552.04 289.768 1568.41 297.641C1585.01 305.626 1597.8 317.686 1606.69 333.879C1615.82 350.527 1620.39 368.478 1622.76 387.199C1624.28 399.211 1624.68 411.233 1624.22 423.272C1623.46 443.402 1620.19 463.121 1612.52 481.878C1607.59 493.944 1600.97 505 1591.51 514.138C1581.81 523.506 1570.51 530.214 1557.75 534.594C1544.21 539.246 1530.27 541.26 1516.02 541.137C1493.94 540.945 1472.67 536.511 1452.18 528.356C1437.04 522.336 1423.09 514.25 1410.23 504.263C1396.36 493.5 1384.85 480.645 1376.12 465.423C1366.28 448.23 1361.27 429.75 1362.07 409.807V409.796Z" fill="black"/>
<path d="M1768.77 391.295C1764.57 406.325 1764.56 421.418 1768.75 436.453C1770.38 442.269 1772.81 447.739 1777.41 451.953C1782.49 456.605 1789.86 456.786 1794.91 452.364C1798.52 449.197 1801.18 445.378 1802.95 440.902C1806.4 432.212 1807.53 423.133 1807.65 415.468C1807.63 407.152 1806.93 400.508 1805.25 393.987C1803.52 387.241 1800.91 380.987 1795.61 376.121C1789.96 370.924 1782.48 370.935 1776.97 376.303C1772.71 380.463 1770.33 385.703 1768.76 391.295H1768.77ZM1795.3 378.899C1800.32 383.551 1802.67 389.607 1804.22 395.984C1807.4 409.022 1807.24 422.059 1803.36 434.952C1801.86 439.946 1799.69 444.641 1795.91 448.422C1792.1 452.236 1786.73 453.464 1782.3 451.445C1779.24 450.046 1776.99 447.76 1775.23 444.919C1771.15 438.333 1769.29 431.048 1768.46 423.453C1768.11 420.275 1767.95 417.076 1767.74 414.357C1768.2 404.84 1768.93 395.856 1772.81 387.471C1774.43 383.967 1776.28 380.64 1779.4 378.178C1784.37 374.268 1790.64 374.578 1795.29 378.893L1795.3 378.899Z" fill="black"/>
<path d="M1447.8 514.111C1469.93 523.971 1492.96 529.274 1517.31 528.083C1530.03 527.464 1542.33 525.012 1554.13 520.104C1569.54 513.7 1581.68 503.456 1591.1 489.772C1598.41 479.16 1603.05 467.367 1606.21 455.04C1610.36 438.835 1611.79 422.283 1610.89 405.561C1610.07 390.147 1607.69 375.069 1602.36 360.461C1598.03 348.588 1591.92 337.848 1583.59 328.426C1574.05 317.627 1562.13 310.24 1548.6 305.567C1531.64 299.718 1514.15 298.33 1496.39 300.29C1476.2 302.522 1457.17 308.526 1439.19 317.985C1428.29 323.715 1418.42 330.819 1409.4 339.151C1398.51 349.219 1389.7 360.905 1383.38 374.295C1377.5 386.75 1374.45 399.98 1374.5 415.111C1374.35 426.556 1377.04 438.755 1381.97 450.366C1386.15 460.189 1391.84 469.183 1398.77 477.397C1406.05 486.039 1414.31 493.612 1423.43 500.203C1431.03 505.699 1439.21 510.292 1447.8 514.117V514.111ZM1384.11 449.683C1377.49 434.269 1375.27 418.171 1377.6 401.486C1380.13 383.332 1387.79 367.447 1399.18 353.321C1411.45 338.093 1426.57 326.354 1444.15 317.766C1463.72 308.211 1484.29 302.629 1506.1 301.881C1522.48 301.321 1538.38 303.655 1553.5 310.245C1563.76 314.716 1572.93 320.783 1580.51 329.094C1588.99 338.403 1595.31 348.952 1599.76 360.819C1604.8 374.284 1607.25 388.181 1608.46 402.378C1608.78 406.191 1608.51 410.058 1608.51 413.898C1609.13 428.463 1607.09 442.75 1603.19 456.712C1599.24 470.838 1593.16 483.983 1583.55 495.338C1573.62 507.072 1561.32 515.137 1546.88 520.189C1534.86 524.393 1522.45 526.096 1509.8 526.07C1497.58 526.043 1485.55 524.302 1473.73 521.145C1456.02 516.419 1439.46 509.139 1424.56 498.387C1406.91 485.649 1392.78 469.861 1384.11 449.683Z" fill="black"/>
<path d="M1563.84 490.899C1573.54 482.386 1580.31 471.784 1585.11 459.954C1591.09 445.223 1593.78 429.804 1593.71 411.308C1593.9 404.706 1592.61 395.701 1590.81 386.702C1588.59 375.673 1584.62 365.375 1579.1 355.644C1574.66 347.814 1568.77 341.197 1561.95 335.343C1553.86 328.405 1544.64 323.603 1534.54 320.431C1523.13 316.842 1511.39 315.757 1499.5 316.302C1481.91 317.103 1465.26 321.745 1449.6 329.655C1436.64 336.197 1424.8 344.342 1415.11 355.388C1407.56 363.987 1401.18 373.216 1396.96 383.946C1393 394.014 1391 404.381 1391.09 415.137C1391.2 428.068 1394.63 440.245 1400.44 451.696C1405.98 462.603 1413.61 472.051 1422.7 480.143C1431.6 488.058 1441.58 494.478 1452.44 499.525C1464.46 505.117 1476.97 509.027 1490.13 510.661C1506.94 512.749 1523.45 511.665 1539.49 505.646C1548.56 502.244 1556.6 497.255 1563.83 490.899H1563.84ZM1477.21 505.71C1460.79 501.795 1445.86 494.686 1432.25 484.773C1426.69 480.725 1421.65 476.11 1417.04 470.951C1408.99 461.946 1402.59 452.028 1398.4 440.673C1395.82 433.671 1394.33 426.46 1393.86 419.058C1392.47 397.293 1399.65 378.338 1413.04 361.492C1424.18 347.488 1438.35 337.458 1454.49 330.013C1467.19 324.153 1480.47 320.436 1494.4 319.245C1511.99 317.744 1529.09 319.731 1545.07 327.721C1559.42 334.9 1570.18 345.747 1578.14 359.767C1585.97 373.542 1591.62 397.491 1590.83 413.615C1591.21 428.89 1588.59 443.402 1583.16 457.299C1578.97 468.045 1573.12 477.926 1564.75 486.055C1554.68 495.829 1542.87 502.527 1529.23 505.972C1511.86 510.351 1494.53 509.844 1477.21 505.715V505.71Z" fill="black"/>
<path d="M1553.65 468.67C1557.84 463.938 1561.54 458.805 1564.16 453.08C1569.84 440.71 1573.07 427.742 1572.68 413.946C1572.95 404.429 1571.3 395.162 1568.53 385.992C1564.46 372.505 1557.1 361.183 1546.49 352.082C1534.35 341.677 1519.86 337.009 1504.09 336.224C1490.05 335.53 1476.53 338.029 1463.52 343.472C1452.04 348.279 1441.91 355.115 1432.98 363.682C1426.12 370.268 1420.95 378.14 1417.02 386.814C1412.28 397.266 1410.26 408.189 1411.33 419.618C1412.89 436.208 1419.94 450.361 1431.29 462.298C1442.06 473.616 1455.03 481.766 1469.84 486.765C1482.52 491.044 1495.58 492.678 1508.93 491.225C1518.21 490.216 1527.03 487.631 1535.36 483.272C1542.42 479.571 1548.4 474.593 1553.65 468.665L1553.65 468.67ZM1473.61 484.773C1458.63 480.265 1445.47 472.574 1434.61 461.47C1422.76 449.346 1415.36 434.819 1414.41 417.546C1413.6 402.992 1417.6 389.821 1425.64 377.644C1436.25 361.567 1451.21 351.291 1468.86 344.663C1484.89 338.644 1501.41 337.463 1518.12 341.538C1530.34 344.519 1540.85 350.538 1549.55 359.725C1557.88 368.521 1563.08 378.931 1566.41 390.478C1568.42 397.432 1569.27 404.482 1569.41 411.66C1569.54 418.78 1569.33 425.889 1567.6 432.827C1564.79 444.096 1560.69 454.773 1553.22 463.938C1542.17 477.499 1527.92 485.281 1510.73 487.743C1498.16 489.537 1485.8 488.442 1473.61 484.779V484.773Z" fill="black"/>
<path d="M1528.95 451.905C1539.43 441.522 1544.9 428.885 1544.38 413.46C1544.7 406.656 1543.52 399.648 1540.59 392.978C1535.91 382.317 1528.93 373.675 1518.31 368.43C1507.33 363.009 1495.73 361.663 1483.79 364.013C1470.14 366.705 1458.81 373.456 1449.68 384.021C1442.45 392.369 1438.78 402.164 1438.61 412.937C1438.34 429.446 1445.72 442.542 1458.71 452.444C1471.45 462.143 1485.85 466.341 1501.82 464.365C1512.14 463.089 1521.51 459.259 1528.95 451.899V451.905ZM1450.51 437.228C1440.04 421.824 1440.49 403.686 1451.84 388.785C1463.18 373.889 1478.69 366.913 1497.45 367.725C1508.18 368.19 1517.81 372.036 1525.49 379.529C1534.29 388.112 1539.32 398.687 1539.76 411.201C1540.04 419.41 1538.99 427.342 1535.25 434.776C1526.73 451.755 1512.72 459.825 1493.28 460.306C1475.79 459.526 1460.79 452.337 1450.51 437.228H1450.51Z" fill="black"/>
<path d="M1670.19 641.248C1699.58 628.814 1725.98 611.018 1748.64 588.351C1771.31 565.684 1789.11 539.289 1801.54 509.897C1814.41 479.47 1820.94 447.146 1820.94 413.823C1820.94 383.999 1815.71 354.971 1805.38 327.385C1805.27 326.92 1805.12 326.536 1804.94 326.194C1803.86 323.363 1802.73 320.548 1801.55 317.75C1789.11 288.358 1771.32 261.963 1748.65 239.296C1725.98 216.629 1699.59 198.832 1670.2 186.398C1639.76 173.527 1607.44 167 1574.12 167C1540.79 167 1508.47 173.527 1478.04 186.398C1448.65 198.832 1422.26 216.629 1399.59 239.296C1376.92 261.963 1359.13 288.358 1346.69 317.75C1333.82 348.177 1327.29 380.506 1327.29 413.823C1327.29 447.141 1333.82 479.47 1346.69 509.897C1359.13 539.289 1376.92 565.684 1399.59 588.351C1422.26 611.018 1448.65 628.814 1478.04 641.248C1508.47 654.12 1540.8 660.647 1574.12 660.647C1607.43 660.647 1639.76 654.12 1670.19 641.248ZM1439.82 619.056C1432.78 614.447 1425.98 609.464 1419.44 604.128C1424.48 606.5 1429.62 608.615 1434.76 610.735C1449.2 616.685 1463.94 621.77 1478.91 626.181C1491.2 629.797 1503.6 632.959 1516.1 635.747C1527.18 638.22 1538.29 640.575 1549.46 642.562C1569.99 646.221 1590.35 650.558 1610.4 656.315C1610.46 656.331 1610.51 656.347 1610.57 656.363C1602.93 657.501 1595.2 658.275 1587.42 658.687C1584.72 657.976 1582.38 657.282 1580.01 656.753C1554.22 651.001 1528.39 645.377 1502.77 638.861C1481.65 633.488 1460.86 627.036 1440.52 619.19C1440.31 619.11 1440.06 618.886 1439.82 619.056H1439.82ZM1397.65 584.089C1392.86 579.127 1388.3 574 1383.97 568.702C1387.77 570.987 1391.57 573.263 1395.35 575.57C1404.4 581.093 1413.89 585.798 1423.53 590.178C1436.72 596.176 1450.22 601.431 1464.06 605.789C1477.84 610.132 1491.8 613.806 1505.91 616.861C1520.59 620.039 1535.39 622.437 1550.3 624.344C1565.59 626.304 1580.93 627.752 1596.26 629.386C1606.79 630.508 1617.27 631.875 1627.59 634.449C1636.72 636.724 1645.48 639.593 1652.86 645.697C1653 645.815 1653.15 645.911 1653.29 645.991C1647.55 647.951 1641.75 649.687 1635.91 651.209C1635.59 650.803 1635.19 650.686 1634.83 650.536C1625.96 646.814 1617.01 643.305 1607.49 641.622C1595.74 639.545 1583.99 637.488 1572.2 635.635C1553.29 632.66 1534.36 629.733 1515.61 625.85C1495.68 621.727 1476.05 616.525 1456.8 609.934C1436.6 603.023 1417.04 594.605 1398.29 584.383C1398.09 584.276 1397.91 584.094 1397.65 584.094L1397.65 584.089ZM1655.87 645.088C1655.79 644.923 1655.7 644.773 1655.58 644.693C1652.51 642.696 1649.96 639.961 1646.62 638.353C1639.05 634.716 1630.97 632.697 1622.81 631.084C1610.11 628.579 1597.21 627.671 1584.34 626.507C1572.47 625.428 1560.58 624.419 1548.77 622.784C1528.76 620.012 1508.87 616.546 1489.26 611.558C1473.73 607.605 1458.45 602.879 1443.49 597.164C1422.98 589.334 1403.36 579.715 1384.95 567.713C1383.9 567.024 1382.8 566.4 1381.52 565.652C1377.27 560.273 1373.25 554.73 1369.48 549.031C1382.5 559.12 1396.43 567.799 1411.03 575.399C1420.79 580.478 1430.81 584.976 1441.08 588.976C1456.51 594.99 1472.24 599.968 1488.32 603.909C1509.28 609.047 1530.52 612.402 1551.99 614.442C1566.13 615.782 1580.31 616.413 1594.5 616.845C1604.5 617.15 1614.52 617.144 1624.51 617.769C1634.37 618.389 1644.33 618.533 1653.83 621.727C1661.48 624.301 1667.55 628.969 1671.41 636.233C1671.8 636.975 1672.04 637.835 1672.67 638.439C1671.64 638.893 1670.61 639.342 1669.56 639.78C1665.04 641.692 1660.47 643.465 1655.87 645.094V645.088ZM1585.3 604.379C1596.92 603.803 1608.52 602.814 1620.04 601.105C1635.35 598.835 1650.43 595.706 1664.7 589.494C1671.93 586.348 1678.01 581.83 1681.3 574.31C1683.49 569.294 1684.63 564.017 1685.29 558.628C1687.16 543.294 1687.49 527.864 1687.97 512.45C1688.28 502.452 1688.23 492.443 1688.39 482.439C1688.56 471.901 1688.1 461.364 1688.71 450.831C1689.06 444.614 1688.15 438.408 1688.67 432.164C1689.31 424.447 1688.25 416.702 1688.72 408.963C1689.26 400.124 1688.27 391.295 1688.64 382.434C1688.98 374.012 1688.37 365.562 1688.37 357.123C1688.37 347.878 1688.31 338.628 1688.15 329.382C1687.91 315.704 1687.66 302.026 1686.91 288.369C1686.42 279.423 1685.77 270.487 1683.97 261.658C1681.72 250.538 1675.29 242.981 1665.05 238.446C1655.84 234.377 1646.21 231.626 1636.39 229.629C1613.38 224.95 1590.13 222.92 1566.64 223.273C1555.28 223.444 1543.97 224.17 1532.67 225.276C1516.19 226.883 1499.92 229.799 1483.86 233.81C1467.52 237.891 1451.54 243.104 1435.99 249.641C1425.3 254.133 1414.89 259.191 1404.84 264.959C1393.01 271.753 1381.67 279.278 1371.1 287.925C1365.96 292.129 1360.92 296.45 1356.25 301.176C1359.55 294.783 1363.13 288.556 1366.98 282.504C1367.34 282.269 1367.63 281.981 1367.94 281.735C1380.22 271.945 1393.39 263.522 1407.18 256.024C1427.25 245.096 1448.39 236.721 1470.25 230.179C1495.19 222.712 1520.68 217.958 1546.58 215.411C1562.17 213.878 1577.82 213.21 1593.47 212.911C1610.75 212.58 1628.06 213.242 1645.28 211.095C1653.69 210.043 1661.73 208.382 1668.06 201.871C1671.37 198.464 1673.58 194.656 1675.22 190.362C1680.98 192.973 1686.63 195.799 1692.15 198.827C1692.07 199.158 1692.11 199.489 1692.15 199.804C1692.83 206.336 1693.39 212.884 1694.75 219.336C1696.15 225.986 1698.81 232.021 1703.62 236.834C1707.5 240.706 1712.12 243.707 1716.85 246.458C1731.09 254.726 1745.51 262.684 1759.09 272.036C1768.58 278.573 1777.74 285.527 1786.24 293.336C1787.28 294.287 1788.3 295.269 1789.4 296.3C1791.57 300.279 1793.64 304.328 1795.59 308.435C1793.39 306.352 1791.18 304.264 1788.91 302.261C1778.05 292.695 1766.17 284.673 1752.9 278.819C1744.74 275.225 1736.4 272.303 1727.29 272.896C1720.52 273.334 1715.09 276.442 1711.33 281.997C1707.32 287.915 1705.48 294.789 1704.04 301.684C1701.31 314.652 1700.41 327.855 1699.57 341.042C1698.54 357.022 1697.99 373.029 1697.88 389.036C1697.69 416.28 1697.54 443.535 1698.81 470.769C1699.47 485.019 1700.15 499.263 1701.96 513.422C1703.29 523.789 1705.02 534.06 1709.92 543.476C1713.53 550.425 1719.35 554.254 1727.11 554.954C1734.55 555.627 1741.56 553.565 1748.38 550.937C1759.49 546.659 1769.58 540.56 1779.15 533.536C1784.91 529.312 1790.21 524.558 1795.39 519.671C1793.4 523.832 1791.29 527.923 1789.08 531.95C1784.46 536.405 1779.54 540.522 1774.52 544.507C1762.74 553.864 1750.14 562.031 1737.2 569.668C1727.97 575.105 1718.46 580.04 1709.62 586.124C1702.99 590.69 1698.11 596.517 1695.84 604.395C1693.9 611.152 1693.06 618.068 1692.48 625.028C1692.38 626.245 1691.93 627.469 1692.22 628.809C1686.66 631.864 1680.97 634.711 1675.17 637.339C1674.25 634.93 1673.37 632.521 1671.86 630.475C1666.83 623.66 1660.34 619.217 1651.8 617.743C1639.98 615.702 1628.07 615.222 1616.14 615.131C1598.16 614.997 1580.17 614.848 1562.22 613.651C1546.24 612.583 1530.36 610.81 1514.59 608.049C1491.47 604 1468.88 598.045 1446.89 589.836C1433.3 584.762 1420.08 578.855 1407.31 571.917C1394.19 564.787 1381.66 556.775 1369.85 547.626C1369.05 547.001 1368.23 546.392 1367.28 545.671C1363.37 539.54 1359.73 533.227 1356.37 526.753C1358.13 528.468 1359.89 530.188 1361.7 531.854C1370.37 539.839 1379.7 546.964 1389.52 553.458C1401.43 561.342 1413.86 568.28 1426.88 574.187C1437.81 579.149 1448.93 583.544 1460.35 587.256C1474.89 591.983 1489.66 595.727 1504.66 598.563C1520.29 601.517 1536.08 603.231 1551.96 604.123C1563.06 604.748 1574.18 604.94 1585.29 604.39L1585.3 604.379ZM1713.81 212.708C1716.2 217.045 1718.85 221.216 1721.82 225.179C1730.53 236.817 1741.49 246.196 1752.37 255.65C1759.43 261.781 1766.44 267.977 1773.56 274.039C1775.52 275.7 1777.27 277.596 1779.26 279.38C1782.23 283.904 1785.04 288.529 1787.71 293.245C1784.25 290.03 1780.66 286.975 1777.04 283.957C1764.98 273.932 1751.99 265.205 1738.81 256.75C1730.78 251.601 1722.59 246.709 1715 240.882C1706.21 234.142 1700.42 225.521 1697.66 214.813C1696.49 210.241 1695.65 205.605 1695 200.937C1694.97 200.728 1694.93 200.531 1694.88 200.344C1701.25 203.949 1707.45 207.827 1713.46 211.987C1713.57 212.249 1713.69 212.489 1713.82 212.714L1713.81 212.708ZM1778.93 548.758C1772.25 555.37 1764.96 561.31 1757.9 567.505C1749.69 574.71 1741.29 581.696 1733.49 589.371C1725.76 596.982 1719.19 605.426 1713.93 614.896C1713.81 615.115 1713.61 615.344 1713.54 615.606C1707.49 619.793 1701.26 623.698 1694.85 627.324C1694.93 627.068 1695 626.79 1695.05 626.475C1695.73 621.754 1696.55 617.054 1697.81 612.434C1700.1 603.984 1704.22 596.624 1710.7 590.653C1717.37 584.495 1725.06 579.752 1732.67 574.918C1745.99 566.464 1759.27 557.945 1771.67 548.155C1777.13 543.85 1782.46 539.396 1787.55 534.669C1784.83 539.46 1781.96 544.154 1778.93 548.748L1778.93 548.758ZM1717.32 612.93C1719.52 609.165 1722.04 605.624 1724.64 602.12C1729.97 594.931 1736.32 588.688 1742.74 582.54C1747.48 578.006 1752.57 573.84 1757.5 569.497C1763.67 564.05 1769.86 558.607 1775.99 553.111C1767.6 565.246 1758.09 576.644 1747.51 587.224C1738.08 596.656 1728 605.239 1717.31 612.936L1717.32 612.93ZM1813.44 360.045C1811.51 355.03 1809.05 350.234 1805.84 345.742C1798.73 335.802 1789.77 328.116 1777.92 324.362C1764.67 320.164 1753.4 324.068 1745.35 335.813C1741.44 341.506 1738.79 347.873 1736.88 354.517C1732.12 371.031 1730.45 387.989 1729.95 405.075C1729.53 419.17 1730.01 433.243 1731.74 447.263C1733.09 458.271 1735.05 469.161 1739.06 479.539C1741.39 485.558 1744.1 491.439 1748.67 496.23C1755.81 503.712 1764.39 506.474 1774.54 504.369C1781.18 502.991 1787.05 499.947 1792.41 495.947C1802.25 488.592 1809.04 479.08 1813.37 467.917C1811.95 474.214 1810.28 480.447 1808.36 486.621C1803.13 494.665 1796.55 501.469 1788.61 507.034C1780.37 512.808 1771.56 517.07 1761.24 517.305C1754.95 517.449 1749.02 516.189 1744.05 512.167C1740.64 509.417 1737.81 506.046 1735.59 502.249C1731.14 494.633 1728.47 486.306 1726.57 477.766C1722.1 457.604 1721 437.089 1720.82 416.521C1720.71 404.065 1721.13 391.61 1722.26 379.192C1723.28 367.939 1724.65 356.723 1727.67 345.811C1730.2 336.657 1733.03 327.566 1739.52 320.217C1742.07 317.338 1744.66 314.582 1748.35 313.007C1756.33 309.589 1764.4 309.743 1772.41 312.462C1787.88 317.712 1799.45 327.962 1808.46 341.335C1810.37 347.504 1812.03 353.743 1813.44 360.04V360.045ZM1785.03 316.778C1777.62 312.072 1769.68 308.643 1760.73 308.349C1753.72 308.12 1747.21 309.567 1741.74 314.347C1736.49 318.941 1732.9 324.672 1730.32 331.043C1725.85 342.072 1723.59 353.646 1722.08 365.407C1720.36 378.813 1719.42 392.278 1719.18 405.78C1718.91 420.393 1719.31 434.99 1720.71 449.555C1721.98 462.779 1723.49 475.934 1727.48 488.688C1729.73 495.909 1732.52 502.826 1737.26 508.824C1742.28 515.185 1748.63 518.972 1756.87 519.436C1763.72 519.821 1770.25 518.576 1776.4 515.714C1789.04 509.833 1799.31 501.159 1807.3 489.927C1805.89 494.243 1804.36 498.526 1802.71 502.778C1798.74 507.52 1794.21 511.665 1789.38 515.516C1780.99 522.208 1771.93 527.709 1761.59 530.887C1755.7 532.703 1749.67 533.889 1743.53 532.639C1733.5 530.599 1727.23 523.939 1723.03 515.041C1718.04 504.439 1715.79 493.052 1714.09 481.579C1711.91 466.822 1710.91 451.931 1710.59 437.041C1710.36 426.407 1710.02 415.762 1710.29 405.096C1710.71 388.795 1711.2 372.521 1712.9 356.296C1714.19 343.931 1716.11 331.7 1720.18 319.902C1722.59 312.916 1725.65 306.336 1731.39 301.289C1736.55 296.749 1742.45 294.447 1749.27 294.741C1759.11 295.168 1768.02 298.629 1776.44 303.473C1786.35 309.177 1795.07 316.308 1802.79 325.093C1804.45 329.35 1805.98 333.639 1807.38 337.965C1801.36 329.446 1793.87 322.396 1785.03 316.778ZM1814.9 460.573C1811.48 472.27 1805.74 482.722 1796.18 491.145C1790.23 496.384 1783.6 500.396 1775.82 502.179C1768.14 503.937 1760.91 502.81 1754.37 498.168C1749.79 494.921 1746.64 490.499 1744.05 485.617C1739.17 476.398 1736.6 466.416 1734.79 456.252C1732.34 442.408 1731.51 428.394 1731.47 414.357C1731.44 405.406 1731.85 396.449 1732.73 387.514C1734.09 373.734 1736.24 360.136 1741.69 347.285C1744.19 341.373 1747.21 335.802 1752.21 331.449C1759.6 325.024 1767.99 323.406 1777.15 326.039C1791.74 330.242 1801.87 339.989 1809.08 352.984C1811.61 357.545 1813.48 362.304 1814.92 367.186C1817.86 382.44 1819.34 398.019 1819.34 413.818C1819.34 429.617 1817.85 445.277 1814.9 460.568V460.573ZM1800.07 318.374C1800.63 319.694 1801.17 321.024 1801.7 322.354C1795.74 315.8 1789.09 310.016 1781.68 305.097C1772.07 298.714 1761.87 293.72 1750.17 292.62C1744.52 292.086 1738.99 292.604 1733.98 295.659C1726.89 299.985 1722.73 306.523 1719.72 314.08C1715.55 324.575 1713.63 335.578 1712.13 346.65C1709.76 364.206 1708.98 381.895 1708.64 399.595C1708.31 416.713 1708.55 433.825 1709.52 450.927C1710.35 465.7 1711.59 480.41 1714.43 494.969C1716.13 503.712 1718.42 512.263 1722.69 520.077C1728.11 529.99 1736.21 535.908 1748.08 535.374C1754.63 535.08 1760.87 533.44 1766.82 530.839C1780.32 524.943 1791.83 516.354 1801.61 505.512C1801.1 506.773 1800.59 508.028 1800.06 509.278C1798.96 511.868 1797.82 514.437 1796.64 516.985C1796.42 517.236 1796.2 517.481 1795.97 517.716C1791.52 522.246 1786.69 526.347 1781.63 530.177C1777.54 533.269 1773.33 536.18 1768.93 538.824C1760.12 544.133 1750.95 548.63 1740.85 550.937C1735.37 552.187 1729.83 552.444 1724.45 550.681C1717.38 548.363 1713.23 543.113 1710.35 536.399C1706.36 527.111 1704.78 517.294 1703.47 507.44C1701.64 493.586 1700.86 479.63 1700.39 465.668C1699.95 452.578 1699.92 439.476 1699.62 426.38C1699.4 416.83 1699.59 407.291 1699.74 397.742C1699.94 384.816 1699.99 371.897 1700.53 358.977C1701.07 346.121 1701.78 333.271 1703.46 320.522C1704.78 310.609 1706.14 300.648 1710.42 291.418C1711.94 288.15 1713.35 284.833 1716.05 282.264C1722.57 276.047 1730.43 275.075 1738.83 276.512C1748.85 278.226 1757.91 282.542 1766.58 287.589C1777.63 294.014 1787.73 301.727 1796.71 310.844C1797.87 313.333 1798.98 315.848 1800.05 318.38L1800.07 318.374ZM1747.51 240.428C1758.28 251.195 1767.93 262.807 1776.43 275.182C1773.98 272.901 1771.5 270.637 1768.99 268.42C1760.24 260.686 1751.26 253.204 1742.7 245.256C1732.88 236.139 1723.85 226.29 1717.12 214.572C1727.87 222.306 1738.03 230.937 1747.52 240.423L1747.51 240.428ZM1669.56 187.873C1670.62 188.316 1671.66 188.77 1672.71 189.229C1672.39 189.571 1672.21 189.95 1672.05 190.329C1670.03 195.094 1666.56 198.587 1662.49 201.652C1656.54 206.139 1649.6 207.688 1642.44 208.59C1629.32 210.251 1616.09 210.583 1602.89 210.86C1587.17 211.191 1571.48 211.742 1555.82 213.05C1546.54 213.825 1537.29 214.855 1528.08 216.201C1513.96 218.263 1499.96 220.949 1486.11 224.405C1476.39 226.83 1466.77 229.629 1457.3 232.87C1446.78 236.47 1436.43 240.481 1426.28 245.059C1417.62 248.968 1409.19 253.305 1400.92 257.946C1392.03 262.94 1383.49 268.49 1375.23 274.471C1373.17 275.967 1371.15 277.521 1369.16 279.107C1372.88 273.441 1376.85 267.929 1381.06 262.582C1381.3 262.433 1381.5 262.241 1381.72 262.096C1392.62 255.014 1403.86 248.568 1415.53 242.826C1432.08 234.681 1449.22 228.069 1466.81 222.578C1486.68 216.377 1506.92 211.72 1527.45 208.307C1538.65 206.443 1549.87 204.734 1561.15 203.532C1573.94 202.17 1586.76 201.092 1599.56 199.879C1611.74 198.726 1623.81 197.011 1635.63 193.63C1642.99 191.526 1649.61 188.257 1655.41 183.295C1655.64 183.092 1655.94 182.922 1656.11 182.638C1660.63 184.246 1665.12 185.987 1669.57 187.867L1669.56 187.873ZM1402.68 241.064C1414.7 234.889 1426.96 229.244 1439.54 224.282C1458.05 216.986 1476.99 211.122 1496.28 206.347C1517.55 201.086 1539.1 197.235 1560.74 193.999C1575.88 191.734 1590.94 188.994 1606.04 186.495C1615.51 184.93 1624.48 181.64 1633.32 177.97C1634.29 177.564 1635.36 177.287 1636.28 176.539C1642.06 178.051 1647.79 179.776 1653.46 181.72C1653.19 181.896 1652.95 182.094 1652.68 182.259C1649.86 184 1647.38 186.249 1644.4 187.76C1637.83 191.093 1630.68 192.557 1623.63 194.309C1613.95 196.712 1604.03 197.716 1594.13 198.688C1578.78 200.194 1563.44 201.749 1548.15 203.714C1529.2 206.149 1510.45 209.632 1491.89 214.198C1475.7 218.183 1459.76 222.974 1444.2 228.961C1431.43 233.875 1418.98 239.504 1406.86 245.892C1398.93 250.068 1391.22 254.598 1383.64 259.351C1387.99 253.999 1392.58 248.819 1397.4 243.814C1399.19 242.938 1400.92 241.972 1402.68 241.064ZM1610.59 171.417C1601.34 174.242 1591.99 176.731 1582.54 178.718C1564.77 182.462 1546.92 185.827 1529.1 189.32C1513.43 192.391 1497.94 196.199 1482.59 200.547C1471.11 203.799 1459.76 207.49 1448.58 211.683C1438.58 215.432 1428.7 219.443 1418.99 223.882C1425.41 218.615 1432.08 213.696 1438.99 209.135C1439.48 209.146 1439.86 208.9 1440.24 208.751C1458.86 201.455 1477.92 195.521 1497.22 190.367C1510.83 186.73 1524.54 183.493 1538.3 180.475C1551.61 177.564 1564.88 174.509 1578.17 171.508C1581.27 170.808 1584.35 170.055 1587.7 168.965C1595.51 169.387 1603.25 170.173 1610.91 171.321C1610.81 171.353 1610.71 171.38 1610.6 171.412L1610.59 171.417ZM1574.12 168.602C1577.17 168.602 1580.21 168.656 1583.24 168.768C1579.02 169.815 1574.81 170.904 1570.56 171.834C1548.1 176.737 1525.69 181.843 1503.41 187.509C1483.24 192.642 1463.38 198.747 1443.87 205.995C1454.92 199.057 1466.53 193.005 1478.66 187.873C1508.9 175.086 1541.01 168.602 1574.12 168.602ZM1415.45 226.841C1415.84 226.691 1416.23 226.547 1416.6 226.365C1423.27 223.166 1430.06 220.255 1436.91 217.456C1460.04 207.997 1483.92 200.931 1508.18 195.12C1530.5 189.774 1553.14 186.014 1575.68 181.725C1587.7 179.434 1599.48 176.17 1611.27 172.955C1612.22 172.694 1613.2 172.41 1614.1 171.834C1620.61 172.896 1627.06 174.232 1633.44 175.818C1631.08 176.902 1628.55 177.543 1626.17 178.553C1620.04 181.154 1613.71 183.162 1607.19 184.449C1589.32 187.974 1571.3 190.682 1553.33 193.668C1534.9 196.733 1516.51 200.066 1498.35 204.52C1481.54 208.638 1464.98 213.568 1448.71 219.454C1432.05 225.479 1415.92 232.689 1400.23 240.919C1400.4 240.754 1400.56 240.588 1400.72 240.428C1405.46 235.685 1410.38 231.156 1415.45 226.846V226.841ZM1594.54 574.203C1610 569.524 1623.89 562.287 1635.02 550.222C1641.68 543.011 1646.67 534.802 1650.44 525.861C1655.93 512.856 1659 499.172 1661.14 485.259C1663.84 467.623 1665.14 449.848 1665.52 432.042C1665.85 415.981 1665.91 399.91 1665.03 383.85C1664.19 368.724 1662.97 353.662 1660.45 338.708C1657.87 323.358 1654.11 308.397 1646.88 294.49C1642.3 285.672 1636.29 277.959 1628.74 271.465C1620.29 264.185 1610.58 259.111 1600.12 255.426C1584.83 250.036 1568.99 247.558 1552.87 246.784C1528.63 245.619 1504.74 248.226 1481.16 253.877C1467.37 257.183 1453.97 261.642 1440.86 267.042C1434.93 269.483 1429.14 272.223 1423.44 275.107C1414.34 279.706 1405.64 285.004 1397.23 290.772C1388.86 296.503 1380.92 302.784 1373.52 309.706C1367.91 314.951 1362.6 320.479 1357.69 326.429C1347.48 338.82 1339.15 352.263 1333.31 367.17C1335.56 355.484 1338.66 343.979 1342.61 332.715C1350.39 322.151 1358.93 312.28 1368.67 303.42C1375.75 296.984 1383.15 290.981 1391 285.543C1406.76 274.632 1423.59 265.686 1441.36 258.497C1458.41 251.596 1475.95 246.34 1493.97 242.693C1509.86 239.483 1525.89 237.501 1542.1 236.882C1558.16 236.273 1574.12 236.93 1589.97 239.467C1605.07 241.886 1619.61 246.031 1632.97 253.764C1645.15 260.82 1654.19 270.717 1660.05 283.466C1665.61 295.584 1668.42 308.488 1670.45 321.584C1672.32 333.676 1673.32 345.849 1674.08 358.058C1675.08 374.102 1675.35 390.163 1675.62 406.223C1675.77 415.762 1675.52 425.312 1675.39 434.851C1675.31 441.255 1675.27 447.664 1674.93 454.057C1674.24 466.667 1673.7 479.283 1672.29 491.845C1670.57 507.088 1668.27 522.187 1663.14 536.736C1658.87 548.854 1652.29 559.355 1642.3 567.591C1633.77 574.625 1623.95 579.277 1613.59 582.754C1601.33 586.866 1588.65 589.019 1575.79 590.135C1564.01 591.155 1552.21 591.438 1540.38 590.872C1529.73 590.365 1519.13 589.387 1508.6 587.774C1489.32 584.821 1470.5 580.067 1452.14 573.46C1438.48 568.541 1425.22 562.688 1412.53 555.627C1396.67 546.798 1381.81 536.559 1368.45 524.174C1360.78 517.07 1353.71 509.459 1347.27 501.25C1345.78 499.349 1344.33 497.41 1342.75 495.3C1338.82 484.154 1335.72 472.777 1333.46 461.219C1334.65 464.2 1336.03 467.116 1337.39 470.032C1344.12 484.399 1353.43 497.036 1364.02 508.733C1370.82 516.248 1378.45 522.919 1386.46 529.141C1399.05 538.92 1412.5 547.279 1426.82 554.329C1439.81 560.727 1453.23 565.972 1467.08 570.138C1489.95 577.017 1513.36 580.842 1537.23 581.333C1556.65 581.734 1575.84 579.859 1594.53 574.203H1594.54ZM1331.74 376.26C1335.7 363.826 1341.28 352.119 1348.58 341.293C1356.23 329.927 1365.01 319.469 1375.19 310.197C1389.83 296.85 1406.06 285.837 1423.62 276.779C1438.46 269.13 1453.97 263.106 1470.01 258.486C1489.97 252.739 1510.31 249.337 1531.05 248.552C1540.36 248.199 1549.68 248.301 1558.97 249.107C1575.32 250.528 1591.24 253.69 1606.29 260.451C1620.81 266.978 1632.66 276.64 1641.35 290.137C1648.1 300.621 1652.14 312.174 1655.24 324.089C1658.21 335.54 1659.99 347.216 1661.22 358.987C1662.55 371.736 1663.42 384.517 1663.71 397.32C1664.21 419.912 1663.82 442.483 1661.56 465.011C1659.86 482.033 1657.24 498.815 1651.87 515.121C1648.13 526.486 1642.84 536.981 1635.14 546.125C1625.61 557.437 1613.45 565.027 1599.67 570.128C1583.62 576.072 1566.92 578.646 1549.9 579.282C1528.92 580.067 1508.15 578.209 1487.61 573.759C1474.21 570.854 1461.09 567.008 1448.31 562.079C1434.33 556.684 1420.89 550.136 1408.09 542.296C1395.49 534.578 1383.75 525.717 1372.96 515.644C1363.66 506.954 1355.6 497.116 1348.56 486.53C1341.36 475.709 1335.76 464.093 1331.8 451.739C1329.87 439.284 1328.89 426.626 1328.89 413.823C1328.89 401.021 1329.85 388.603 1331.74 376.26H1331.74ZM1348.17 509.272C1346.89 506.265 1345.69 503.242 1344.54 500.203C1347.92 504.791 1351.56 509.176 1355.47 513.294C1364.25 522.539 1373.5 531.272 1383.82 538.845C1394.12 546.408 1404.86 553.245 1416.14 559.216C1429.18 566.116 1442.72 571.879 1456.69 576.622C1474.71 582.738 1493.14 587.133 1512 589.734C1528.57 592.02 1545.17 593.42 1561.93 592.779C1571.14 592.426 1580.3 591.807 1589.4 590.45C1605.49 588.052 1621.15 584.238 1635.41 575.955C1646.32 569.626 1654.83 561.005 1660.67 549.821C1665.17 541.185 1667.89 531.897 1669.91 522.432C1673.29 506.57 1674.73 490.445 1675.78 474.294C1676.67 460.584 1677.07 446.847 1677.23 433.11C1677.47 412.616 1677.36 392.123 1676.63 371.635C1676.05 355.575 1675.01 339.552 1672.95 323.614C1671.12 309.434 1668.46 295.435 1662.69 282.227C1657.88 271.251 1650.69 262.209 1640.85 255.324C1630.83 248.311 1619.62 244.012 1607.87 240.999C1591.43 236.785 1574.63 235.327 1557.72 234.793C1551.26 234.59 1544.82 235.119 1538.36 235.407C1524.43 236.032 1510.67 237.976 1496.99 240.556C1481.05 243.558 1465.47 247.895 1450.25 253.476C1442.87 256.179 1435.63 259.223 1428.49 262.529C1421.04 265.985 1413.79 269.803 1406.68 273.916C1397.84 279.027 1389.42 284.742 1381.27 290.868C1372.04 297.812 1363.72 305.796 1355.82 314.192C1351.75 318.513 1347.86 323.01 1344.39 327.844C1345.59 324.666 1346.84 321.51 1348.17 318.374C1350.08 313.845 1352.12 309.391 1354.29 305.011C1358.17 301.059 1362.25 297.304 1366.42 293.662C1371.78 288.983 1377.34 284.566 1383.14 280.464C1397.77 270.108 1413.27 261.279 1429.64 253.941C1446.74 246.266 1464.41 240.246 1482.55 235.616C1499.61 231.263 1516.95 228.379 1534.48 226.648C1550.38 225.073 1566.32 224.613 1582.28 225.249C1595.26 225.767 1608.18 227.049 1620.98 229.356C1633.73 231.653 1646.3 234.548 1658.05 240.225C1665.36 243.755 1671.78 248.301 1675.86 255.58C1678.48 260.248 1680.15 265.248 1681.27 270.455C1683.68 281.65 1684.37 293.053 1685.06 304.429C1685.97 319.363 1686.19 334.328 1686.49 349.288C1686.77 363.025 1686.84 376.768 1686.85 390.51C1686.89 422.417 1687 454.329 1686.23 486.231C1685.87 501.48 1685.51 516.723 1684.46 531.945C1683.78 541.772 1682.84 551.562 1680.32 561.112C1678.15 569.337 1674.35 576.601 1667.42 581.937C1661.76 586.289 1655.36 589.158 1648.71 591.502C1640.3 594.466 1631.64 596.523 1622.86 598.13C1609.2 600.635 1595.42 602.061 1581.57 602.596C1558.64 603.487 1535.82 602.045 1513.16 598.467C1492.35 595.182 1471.99 590.055 1452.14 582.957C1433.84 576.409 1416.27 568.274 1399.65 558.158C1384.09 548.689 1369.52 537.927 1356.61 525.007C1355.93 524.323 1355.22 523.682 1354.5 523.036C1352.26 518.523 1350.14 513.935 1348.17 509.267L1348.17 509.272ZM1400.72 587.219C1400.67 587.171 1400.63 587.128 1400.58 587.08C1407.86 590.728 1415.03 594.605 1422.52 597.831C1436.31 603.781 1450.3 609.208 1464.62 613.812C1483.11 619.756 1501.9 624.494 1520.91 628.312C1535.06 631.154 1549.3 633.557 1563.55 635.822C1576.48 637.878 1589.39 640.116 1602.28 642.386C1609.05 643.577 1615.73 645.185 1622.16 647.706C1625.73 649.105 1629.33 650.451 1632.93 651.807C1633.01 651.839 1633.09 651.866 1633.18 651.893C1626.74 653.484 1620.24 654.82 1613.68 655.883C1612.86 655.258 1611.97 655.081 1611.13 654.852C1605.35 653.26 1599.58 651.615 1593.78 650.146C1576.72 645.82 1559.34 643.075 1542.08 639.812C1521.41 635.913 1500.93 631.277 1480.72 625.466C1460.21 619.569 1440.2 612.316 1420.8 603.407C1419.19 602.67 1417.57 601.965 1415.96 601.244C1410.71 596.801 1405.63 592.127 1400.72 587.219ZM1478.67 639.774C1466.68 634.706 1455.2 628.734 1444.27 621.909C1449.14 623.714 1454.01 625.54 1458.93 627.196C1477.53 633.466 1496.41 638.791 1515.51 643.342C1526.55 645.97 1537.61 648.565 1548.65 651.188C1560.04 653.89 1571.55 656.086 1582.92 658.895C1580 658.996 1577.06 659.05 1574.12 659.05C1541.02 659.05 1508.9 652.566 1478.67 639.78L1478.67 639.774Z" fill="black"/>
</g>
<g clip-path="url(#clip2_2021_445)">
<rect width="493.647" height="493.647" transform="matrix(0 1 -1 0 635.646 167)" fill="#F8F6F3"/>
<path d="M484.897 641.248C514.288 628.814 540.684 611.018 563.351 588.351C586.018 565.684 603.814 539.289 616.248 509.897C629.12 479.47 635.646 447.146 635.646 413.823C635.646 380.501 629.12 348.177 616.248 317.75C603.814 288.358 586.018 261.963 563.351 239.296C540.684 216.629 514.288 198.832 484.897 186.398C454.469 173.527 422.146 167 388.823 167C355.501 167 323.177 173.527 292.749 186.398C263.358 198.832 236.963 216.629 214.295 239.296C191.628 261.963 173.832 288.358 161.398 317.75C157.035 328.068 153.403 338.606 150.503 349.326C150.492 349.347 150.476 349.368 150.465 349.39C150.465 349.4 150.471 349.411 150.476 349.422C144.846 370.284 142 391.835 142 413.818C142 436.966 145.151 459.633 151.389 481.52C151.362 481.617 151.341 481.713 151.314 481.809C151.416 482.001 151.528 482.183 151.635 482.37C154.332 491.695 157.579 500.882 161.393 509.897C173.827 539.289 191.623 565.684 214.29 588.351C236.957 611.018 263.352 628.814 292.744 641.248C323.172 654.12 355.501 660.647 388.818 660.647C422.135 660.647 454.464 654.12 484.892 641.248H484.897ZM388.823 659.044C386.286 659.044 383.749 659.002 381.223 658.927C381.084 658.211 380.94 657.496 380.812 656.78C380.224 653.575 379.626 650.376 379.054 647.166C375.978 629.84 365.419 619.548 348.921 614.479C329.778 608.599 310.172 604.438 291.03 598.568C250.064 586.012 211.758 568.37 178.772 540.469C176.091 536.025 173.549 531.491 171.151 526.871C175.007 530.385 178.826 533.948 182.885 537.206C218.376 565.679 258.7 583.282 303.608 590.306C317.574 592.49 331.632 593.243 345.609 589.916C356.158 587.4 363.667 581.205 368.485 571.543C372.175 564.14 373.884 556.177 375.22 548.133C379.236 523.939 379.957 499.472 380.454 475.042C381.052 445.827 381.597 416.606 380.999 387.369C380.432 359.66 380.187 331.957 377.943 304.322C376.907 291.541 375.39 278.824 371.63 266.497C366.909 251.019 356.943 241.646 340.578 239.157C325.351 236.844 310.337 238.302 295.446 241.202C249.909 250.074 209.264 269.163 174.51 300.178C172.694 301.796 170.761 303.35 168.924 305.156C171.162 300.632 173.533 296.183 176.038 291.814C185.7 283.605 195.816 276.042 206.508 269.248C238.383 249.011 273.255 235.968 309.552 226.322C324.165 222.44 339.024 219.379 353.225 214.06C362.54 210.566 370.375 205.119 374.792 195.815C378.632 187.718 380.005 178.958 381.266 170.183C381.303 169.532 381.367 169.078 381.356 168.714C383.84 168.64 386.329 168.597 388.823 168.597C391.317 168.597 393.796 168.64 396.274 168.709C396.274 169.676 396.877 170.942 397.059 171.599C398.181 175.636 399.217 179.706 400.6 183.659C404.595 195.11 412.185 203.361 423.064 208.735C431.353 212.826 440.033 215.822 448.824 218.546C469.51 224.955 490.345 230.905 510.512 238.9C541.127 251.035 569.835 266.455 595.119 287.808C597.827 290.094 600.465 292.471 603.446 295.088C605.732 299.216 607.9 303.409 609.946 307.676C601.988 300.712 594.462 293.245 585.997 286.852C554.255 262.876 518.759 247.115 479.994 238.633C462.769 234.863 445.395 232.374 427.663 234.345C411.154 236.182 402.779 243.179 398.191 259.196C396.226 266.049 395.232 273.083 394.49 280.154C391.494 308.798 390.976 337.57 390.933 366.315C390.863 417.669 389.977 469.033 392.327 520.366C393.048 536.073 393.94 551.771 397.23 567.206C401.332 586.46 411.875 595.097 431.519 596.186C442.644 596.806 453.652 596.149 464.558 594.354C513.738 586.257 558.085 567.318 596.225 534.781C600.252 531.341 604.354 527.934 607.932 524.008C605.555 528.735 603.029 533.382 600.359 537.932C599.68 538.418 598.826 539.048 598.495 539.337C586.969 549.581 574.449 558.452 561.268 566.426C530.824 584.847 497.731 596.875 463.832 607.002C450.453 610.997 436.892 614.527 424.309 620.803C417.809 624.045 411.715 627.88 407.282 633.851C401.722 641.339 399.099 650.04 396.851 658.89C394.175 658.975 391.494 659.023 388.802 659.023L388.823 659.044ZM361.734 657.57C360.42 654.355 358.492 651.53 356.457 648.859C347.687 637.365 336.017 629.535 323.017 623.767C308.446 617.305 293.631 611.403 278.9 605.303C254.139 595.043 229.896 583.747 207.32 569.172C201.456 565.385 195.752 561.358 189.989 557.411C186.725 552.903 183.617 548.288 180.674 543.572C182.698 545.271 184.717 546.948 186.789 548.545C219.919 574.075 257.541 590.386 297.252 602.473C314.279 607.653 331.669 611.638 348.285 618.186C361.894 623.554 371.534 632.542 375.412 646.995C376.464 650.921 377.399 654.878 378.371 658.825C372.795 658.596 367.245 658.179 361.734 657.576V657.57ZM341.513 654.446C338.335 651.476 335.445 648.496 332.273 645.863C319.625 635.368 305.076 627.981 290.447 620.803C266.317 608.967 241.876 597.746 218.83 583.822C213.484 580.591 208.249 577.188 202.978 573.834C199.175 569.428 195.538 564.899 192.072 560.257C205.104 569.893 218.969 578.209 233.261 585.825C258.887 599.482 285.982 609.849 312.602 621.294C330.766 629.103 347.644 638.797 358.465 656.321C358.663 656.636 358.86 656.983 359.1 657.277C353.167 656.561 347.276 655.632 341.432 654.489C341.459 654.473 341.486 654.467 341.513 654.451V654.446ZM360.628 170.199C360.281 170.691 360.003 171.203 359.805 171.567C351.783 185.977 339.285 195.43 325.057 202.934C310.407 210.663 294.784 216.18 279.578 222.653C250.716 234.943 222.489 248.423 196.724 266.54C193.786 268.602 190.811 270.631 188.066 272.933C191.564 267.955 195.255 263.106 199.132 258.39C204.137 255.671 208.848 252.541 213.633 249.534C237.636 234.43 263.331 222.546 288.781 210.193C302.614 203.474 316.271 196.408 328.689 187.237C334.356 183.05 339.333 178.072 344.359 172.624C349.743 171.641 355.17 170.835 360.628 170.21V170.199ZM237.641 243.627C258.711 232.87 280.636 224.053 302.534 215.186C314.402 210.38 326.339 205.706 337.16 198.704C347.585 191.953 356.323 183.584 362.129 172.442C362.433 171.855 363.293 170.835 363.539 169.889C368.591 169.377 373.676 169.014 378.787 168.811C378.606 169.334 378.504 170.039 378.376 170.984C377.655 174.162 376.993 177.356 376.202 180.518C372.656 194.746 364.57 205.103 350.806 210.876C342.944 214.172 334.89 216.821 326.718 219.149C302.315 226.109 277.896 233.02 254.46 242.917C226.954 254.534 201.189 269.045 178.372 288.486C178.126 288.695 177.875 288.898 177.629 289.106C180.471 284.299 183.473 279.599 186.634 275C202.812 263.133 219.818 252.734 237.641 243.633V243.627ZM414.449 169.922C415.336 172.138 417.141 174.349 418.289 176.048C426.498 188.166 438.11 196.237 450.763 202.945C469.205 212.719 488.945 219.582 507.933 228.144C538.061 241.726 567.111 257.055 592.817 278.109C592.988 278.253 593.17 278.435 593.373 278.488C596.08 282.574 598.66 286.734 601.117 290.981C600.428 290.607 599.734 290.27 599.2 289.8C591.765 283.268 584.026 277.099 575.838 271.507C546.244 251.286 513.744 237.25 479.866 226.071C463.843 220.784 447.537 216.271 432.091 209.354C424.41 205.914 417.082 201.903 411.512 195.297C405.669 188.369 402.261 180.294 399.874 171.673C399.66 170.904 399.537 169.724 399.03 168.811C404.194 169.019 409.333 169.387 414.444 169.916L414.449 169.922ZM433.666 172.784C439.231 178.729 445.032 183.878 451.388 188.364C465.52 198.336 481.041 205.872 496.476 213.504C525.499 227.861 554.405 242.393 580.693 261.53C580.789 261.6 580.933 261.605 581.099 261.589C584.571 265.963 587.887 270.444 591.044 275.032C567.714 256.552 541.965 242.062 515.02 229.65C497.795 221.718 480.175 214.658 462.951 206.721C445.117 198.507 428.688 188.279 417.809 171.134C417.643 170.872 417.424 170.541 417.168 170.21C422.776 170.851 428.352 171.689 433.88 172.715C433.81 172.736 433.741 172.758 433.666 172.779V172.784ZM402.357 650.899C406.747 638.626 414.551 629.311 426.37 623.564C430.034 621.786 433.725 620.034 437.506 618.528C458.288 610.244 479.978 604.604 500.893 596.688C536.395 583.256 569.696 566.031 598.559 540.998C595.546 545.96 592.363 550.809 589.004 555.541C588.176 556.075 587.246 556.62 586.819 556.946C568.921 570.464 549.721 581.83 529.67 591.817C508.189 602.521 485.864 611.307 463.864 620.824C451.19 626.31 439.263 633.023 428.763 642.092C423.732 646.44 419.763 651.637 416.185 657.538C410.743 658.142 405.263 658.558 399.751 658.799C400.611 656.16 401.428 653.506 402.363 650.894L402.357 650.899ZM436.604 654.403C430.745 655.562 424.837 656.502 418.888 657.229C419.149 656.961 419.358 656.646 419.561 656.353C430.568 640.597 446.356 631.084 463.293 623.249C487.68 611.964 512.852 602.419 536.651 589.82C554.276 580.489 571.304 570.266 587.124 558.094C587.145 558.078 587.177 558.057 587.204 558.036C583.769 562.752 580.159 567.35 576.377 571.821C573.413 573.786 570.171 575.88 567.891 577.402C542.911 594.039 515.837 606.826 489.138 620.322C474.194 627.88 459.036 635.17 445.977 645.922C442.869 648.48 439.926 651.241 436.39 654.366C436.465 654.382 436.534 654.387 436.609 654.398L436.604 654.403ZM484.272 639.774C469.894 645.858 455.089 650.51 439.958 653.719C440.433 653.367 440.818 652.945 441.234 652.587C447.227 647.412 453.252 642.268 460.035 638.134C480.635 625.567 502.624 615.622 523.945 604.417C540.753 595.583 557.193 586.135 572.884 575.426C573.114 575.271 573.413 575.089 573.75 574.876C570.059 579.106 566.214 583.224 562.213 587.224C539.69 609.747 513.466 627.426 484.267 639.78L484.272 639.774ZM616.675 502.735C593.656 531.331 564.312 551.13 530.279 564.119C508.467 572.44 486.045 577.915 462.358 575.522C441.202 573.386 426.237 562.997 418.348 542.947C416.084 537.19 414.198 531.325 412.831 525.295C406.806 498.793 405.508 471.784 404.809 444.79C403.853 407.879 404.072 370.957 408.072 334.178C409.813 318.182 412.323 302.325 418.343 287.236C425.494 269.312 438.345 258.459 457.492 255.281C466.401 253.802 475.374 253.759 484.309 254.651C505.513 256.771 525.542 263.127 544.764 272.111C569.071 283.471 590.852 298.388 608.883 318.444C612.451 322.412 615.906 326.493 619.64 330.819C621.755 336.689 623.635 342.617 625.285 348.61C623.368 345.715 621.391 342.858 619.378 340.027C599.611 312.227 573.541 292.294 542.297 279.097C521.258 270.209 499.456 264.831 476.33 267.256C460.911 268.869 447.953 275.177 438.313 287.562C430.579 297.502 426.301 309.054 423.214 321.088C416.74 346.292 415.181 372.1 414.273 397.945C413.408 422.641 414.31 447.306 416.869 471.891C418.706 489.532 421.446 507.002 427.898 523.656C434.35 540.314 444.583 553.56 462.043 559.723C475.556 564.493 489.581 564.61 503.462 562.159C552.06 553.565 590.937 529.157 619.96 489.228C621.386 487.262 622.839 485.259 624.137 483.064C622.326 489.217 620.27 495.3 617.968 501.32C617.514 501.768 617.071 502.233 616.67 502.73L616.675 502.735ZM493.629 281.1C470.77 282.67 454.085 293.448 443.648 313.909C434.649 331.545 431.086 350.623 428.774 369.995C425.745 395.386 425.404 420.852 427.412 446.339C428.907 465.3 431.455 484.095 437.688 502.185C441.875 514.33 447.574 525.669 457.182 534.444C471.753 547.754 489.554 550.569 508.381 548.886C529.553 547.001 548.978 539.62 566.956 528.58C597.426 509.865 620.067 484.581 631.384 450.142C629.974 459.649 628.009 469.044 625.488 478.3C625.178 478.7 624.884 479.112 624.628 479.544C611.265 501.998 593.25 519.954 571.325 533.948C547.002 549.474 520.858 559.932 491.589 561.016C475.812 561.598 460.927 559.029 448.316 548.571C437.683 539.753 431.77 527.976 427.652 515.169C419.368 489.388 417.563 462.651 416.586 435.86C415.699 411.644 416.174 387.428 418.535 363.276C420.26 345.624 422.893 328.148 428.891 311.346C439.21 282.43 458.165 268.981 488.791 268.992C504.824 268.992 520.244 272.426 535.161 278.087C571.245 291.776 600.855 313.755 621.995 346.452C623.549 348.856 625.034 351.302 626.716 354.042C628.976 363.052 630.717 372.19 631.929 381.43C625.386 360.6 614.202 342.446 598.826 326.738C584.496 312.093 568.035 300.45 549.213 292.289C531.497 284.609 513.204 279.748 493.624 281.094L493.629 281.1ZM632.517 441.431C630.338 449.464 627.726 457.336 624.11 464.878C611.26 491.658 591.375 511.959 566.165 527.143C544.721 540.063 521.691 547.995 496.236 546.814C474.573 545.81 458.016 536.239 447.168 517.182C440.396 505.277 436.491 492.379 433.96 479.058C427.273 443.872 427.022 408.434 430.606 372.933C432.352 355.623 435.589 338.563 442.468 322.434C450.8 302.896 463.992 288.791 485.746 284.566C500.343 281.73 514.748 283.129 528.96 287.001C552.316 293.363 572.788 304.985 590.739 321.178C608.552 337.244 622 356.199 629.659 379.075C630.936 382.894 631.961 386.782 632.971 390.686C633.681 398.334 634.044 406.047 634.044 413.818C634.044 423.106 633.531 432.314 632.517 441.426V441.431ZM614.774 318.374C615.97 321.205 617.113 324.052 618.203 326.915C611.852 319.694 605.598 312.377 598.441 305.909C574.829 284.571 547.718 269.264 517.418 259.773C497.758 253.615 477.735 249.54 456.899 252.531C437.656 255.292 424.01 265.221 416.591 283.396C413.589 290.756 411.373 298.346 409.84 306.133C404.429 333.554 403.281 361.364 402.523 389.18C401.556 424.703 402.25 460.205 405.701 495.605C407.239 511.377 409.557 527.026 414.764 542.119C421.798 562.506 435.567 574.683 457.177 577.712C468.26 579.266 479.284 578.823 490.217 576.868C535.839 568.718 575.085 548.299 607.596 515.19C610.725 512.002 613.78 508.711 616.536 505.005C615.965 506.436 615.383 507.862 614.779 509.283C613.257 512.877 611.655 516.424 609.978 519.928C609.118 521.14 607.569 522.454 606.586 523.453C600.294 529.856 593.543 535.758 586.44 541.243C561.343 560.615 533.372 574.422 503.104 583.576C481.479 590.119 459.452 594.253 436.684 592.96C416.233 591.796 405.332 582.807 400.386 562.987C400.36 562.875 400.338 562.757 400.312 562.645C396.84 548.55 395.772 534.14 394.917 519.73C393.224 491.124 393.075 462.469 392.765 433.825C392.562 415.079 392.738 396.326 393.026 377.574C393.454 349.512 393.683 321.446 396.263 293.475C397.363 281.532 398.725 269.59 403.34 258.331C407.517 248.146 414.78 241.534 425.58 238.943C431.044 237.635 436.593 236.951 442.19 236.914C469.253 236.737 495.077 242.992 520.217 252.403C553.475 264.858 583.187 282.99 608.311 308.301C609.534 309.53 610.715 310.806 612.103 312.286C613.022 314.299 613.914 316.329 614.779 318.374H614.774ZM484.272 187.873C513.471 200.221 539.696 217.905 562.218 240.428C568.029 246.239 573.515 252.296 578.674 258.587C571.587 253.893 564.531 249.15 557.326 244.642C535.086 230.734 511.479 219.358 488.123 207.522C469.707 198.186 451.644 188.321 436.828 173.553C436.721 173.447 436.609 173.334 436.491 173.222C452.83 176.438 468.799 181.33 484.267 187.873H484.272ZM293.374 187.873C308.81 181.346 324.731 176.464 341.027 173.244C340.717 173.537 340.439 173.863 340.14 174.152C334.238 179.957 328.165 185.544 321.211 190.105C306.465 199.778 290.688 207.543 274.857 215.202C250.94 226.771 227.327 238.884 205.125 253.567C203.533 254.619 201.974 255.719 200.42 256.836C205.152 251.169 210.151 245.694 215.422 240.428C237.945 217.905 264.17 200.226 293.369 187.873H293.374ZM147.752 459.046C154.973 476.708 165.831 491.994 179.819 505.24C204.062 528.201 232.209 543.236 265.841 546.04C293.898 548.379 315.78 538.183 328.876 511.751C333.987 501.437 337.331 490.531 339.504 479.309C346.811 441.575 347.024 403.633 342.057 365.626C339.846 348.701 335.99 332.149 328.053 316.842C318.974 299.318 305.108 288.043 285.299 284.865C273.062 282.9 260.89 283.706 248.889 286.596C222.456 292.962 199.666 305.93 180.022 324.661C165.489 338.521 154.231 354.474 146.962 373.05C148.318 364.937 150.081 356.904 152.254 348.978C157.975 340.086 164.261 331.625 171.578 323.972C187.062 307.794 205.05 295.093 225.405 285.821C246.571 276.175 268.581 270.407 292.108 272.389C303.041 273.307 313.029 276.87 321.756 283.594C332.588 291.947 338.912 303.372 343.275 316.014C352.04 341.426 354.085 367.907 355.105 394.468C355.997 417.637 355.565 440.806 353.268 463.911C351.548 481.216 348.867 498.334 343.008 514.8C336.113 534.177 324.71 549.314 304.04 555.493C291.948 559.109 279.525 559.141 267.332 556.978C218.985 548.411 180.968 523.725 153.488 483.016C151.165 475.122 149.253 467.126 147.747 459.04L147.752 459.046ZM145.979 379.47C148.259 372.842 150.973 366.406 154.343 360.243C166.344 338.312 183.189 320.858 204.249 307.564C223.525 295.398 244.253 287.247 267.385 286.243C295.179 285.041 315.539 296.252 327.61 321.713C333.042 333.174 336.417 345.261 338.554 357.695C344.418 391.808 344.37 426.081 340.418 460.354C338.356 478.23 334.393 495.717 325.853 511.825C316.725 529.045 303.009 540.106 283.435 543.113C270.702 545.068 258.076 544.021 245.69 540.741C217.607 533.307 193.839 518.651 174.136 497.335C161.767 483.951 152.308 468.926 146.524 451.803C144.59 439.327 143.613 426.652 143.613 413.823C143.613 402.239 144.409 390.772 145.989 379.47H145.979ZM162.141 497.394C181.966 521.845 206.882 539.353 236.151 550.649C253.573 557.373 271.578 561.443 290.426 560.38C306.839 559.456 321.057 553.683 331.899 540.918C339.04 532.511 343.366 522.598 346.592 512.178C353.428 490.077 355.613 467.249 356.9 444.315C358.561 414.603 357.861 384.934 354.219 355.382C352.077 338.003 348.883 320.842 341.55 304.744C332.732 285.394 318.119 273.564 296.846 270.38C288.364 269.114 279.84 269.056 271.433 270.434C221.474 278.621 182.03 303.318 153.429 344.855C155.128 339.065 157.04 333.329 159.171 327.657C178.575 303.948 202.492 286.136 230.382 273.569C254.583 262.668 279.669 255.751 306.54 257.781C319.396 258.753 331.178 262.556 340.562 272.036C350.907 282.488 355.57 295.723 358.796 309.556C365.259 337.282 366.599 365.584 367.112 393.875C367.699 426.482 367.534 459.099 363.683 491.567C361.734 508.017 359.234 524.366 352.595 539.732C347.147 552.342 339.018 562.474 325.906 567.858C311.624 573.722 296.723 573.797 281.864 571.714C245.417 566.608 213.355 551.354 184.872 528.329C176.337 521.428 168.635 513.625 161.083 504.887C158.824 499.253 156.784 493.554 154.962 487.796C157.243 491.214 159.673 494.328 162.151 497.383L162.141 497.394ZM162.872 509.272C162.798 509.091 162.723 508.914 162.648 508.733C167.434 514.255 172.593 519.431 178.041 524.296C201.183 544.945 227.787 559.446 257.408 568.424C275.391 573.872 293.695 576.868 312.559 574.406C330.382 572.082 344.044 563.67 352.403 547.338C357.066 538.22 359.891 528.521 361.894 518.566C367.774 489.313 368.885 459.622 369.446 429.932C370.017 399.766 369.248 369.611 366.076 339.568C364.303 322.743 361.846 306.047 355.725 290.131C348.237 270.658 334.553 258.897 313.585 255.863C304.152 254.502 294.736 254.309 285.389 255.741C235.975 263.319 194.475 285.656 161.211 323.064C161.051 323.24 160.891 323.416 160.725 323.598C161.42 321.851 162.13 320.11 162.862 318.374C164.229 315.143 165.666 311.949 167.161 308.787C170.601 305.524 173.715 302.544 176.94 299.708C206.556 273.66 240.856 256.542 278.905 246.81C297.033 242.174 315.432 239.557 334.243 241.667C351.538 243.606 362.909 252.808 368.517 269.248C371.999 279.455 373.708 290.014 374.878 300.674C378.184 330.803 378.515 361.081 378.932 391.338C379.209 411.356 379.108 431.385 378.67 451.413C378.152 475.394 377.623 499.359 375.503 523.26C374.392 535.796 372.693 548.246 368.714 560.273C363.528 575.949 353.199 585.59 336.599 588.111C323.204 590.146 309.867 589.344 296.648 587.005C252.115 579.116 212.346 560.936 177.982 531.32C175.183 528.906 172.475 526.374 169.468 523.608C167.118 518.913 164.913 514.138 162.856 509.278L162.872 509.272ZM293.374 639.774C264.175 627.426 237.951 609.742 215.428 587.219C212.074 583.865 208.832 580.43 205.696 576.916C205.835 577.007 205.969 577.092 206.108 577.183C228.316 591.839 252.019 603.749 275.845 615.462C297.764 626.235 320.159 636.297 338.014 653.709C338.046 653.741 338.084 653.778 338.116 653.81C322.835 650.595 307.886 645.916 293.374 639.78V639.774Z" fill="black"/>
<path d="M568.649 313.626C551.056 302.736 532.074 295.632 511.111 295.189C489.57 294.73 472.079 302.715 459.688 320.762C453.204 330.205 449.273 340.791 446.346 351.745C440.807 372.473 438.9 393.656 439.023 417.615C438.874 423.33 439.221 431.587 439.931 439.834C441.646 459.654 444.882 479.128 453.102 497.447C459.287 511.232 468.281 522.443 482.259 529.125C497.411 536.367 513.247 536.565 529.04 532.719C569.509 522.865 599.696 499.439 618.112 461.951C632.341 432.987 632.827 403.072 620.51 373.285C609.935 347.712 592.053 328.122 568.644 313.632L568.649 313.626ZM614.261 466.368C596.892 497.784 570.647 518.63 536.235 528.932C523.256 532.815 509.941 534.177 496.546 531.25C474.733 526.481 461.626 511.937 453.503 492.074C445.641 472.852 442.799 452.61 441.662 432.063C441.352 426.497 441.614 420.895 441.614 415.313C441.518 391.028 443.221 366.929 451.35 343.744C455.046 333.206 459.96 323.352 467.678 315.138C478.167 303.97 491.237 298.276 506.443 297.657C532.379 296.599 555.137 305.695 575.774 320.505C599.397 337.452 616.344 359.511 623.88 387.93C631.128 415.255 627.913 441.671 614.256 466.368H614.261Z" fill="black"/>
<path d="M175.632 488.576C195.1 510.757 219.06 525.391 248.227 530.642C268.918 534.364 288.21 531.245 304.073 516.029C313.206 507.264 318.675 496.224 322.691 484.426C330.318 461.999 332.257 438.734 332.652 416.478C332.465 397.042 331.007 378.979 327.055 361.166C325.079 352.268 322.328 343.637 318.525 335.353C305.552 307.11 281.438 293.929 250.663 299.115C212.469 305.545 183.505 326.21 163.135 358.747C149.862 379.94 144.505 403.318 147.784 428.287C150.791 451.221 160.416 471.223 175.638 488.571L175.632 488.576ZM148.612 414.763C148.826 387.791 158.306 364.328 175.755 343.958C195.148 321.323 219.204 306.485 248.799 301.545C267.636 298.404 285.272 301.347 300.233 314.299C308.613 321.558 314.055 330.851 318.248 340.972C324.967 357.187 328.022 374.241 329.309 391.605C331.253 417.84 330.575 443.973 324.502 469.733C322.034 480.207 318.525 490.349 313.152 499.691C301.178 520.52 282.944 530.289 259.021 529.541C239.5 528.932 221.805 522.352 205.547 512.023C180.551 496.149 162.451 474.588 153.296 446.078C150.033 435.919 148.271 425.509 148.612 414.758V414.763Z" fill="black"/>
<path d="M488.229 318.391C475.176 326.477 467.463 338.879 462.234 352.899C454.778 372.906 452.434 393.773 452.466 417.787C452.369 433.954 454.367 452.642 459.996 470.823C463.97 483.662 469.792 495.514 479.63 504.962C494.446 519.196 512.472 522.31 531.854 518.763C558.922 513.807 580.596 499.477 597.522 478.15C614.666 456.557 622.886 431.828 619.495 404.188C614.079 360.04 579.763 322.359 536.442 312.232C519.65 308.307 503.28 309.06 488.224 318.385L488.229 318.391ZM542.771 316.254C584.548 330.969 611.28 359.447 617.615 403.969C621.919 434.194 611.504 460.707 591.016 483.08C575.09 500.47 555.723 512.322 532.239 516.397C512.178 519.88 493.938 516.184 479.374 500.764C471.72 492.662 466.71 482.968 463.153 472.5C456.861 453.993 454.661 434.872 454.725 420.58C454.725 393.122 457.059 371.192 465.946 350.485C473.162 333.666 484.175 320.377 502.516 314.994C516.002 311.036 529.702 311.656 542.771 316.254Z" fill="black"/>
<path d="M240.054 515.377C259.111 519.052 276.731 516.136 291.515 502.521C299.468 495.199 304.846 486.114 308.745 476.121C316.404 456.503 318.733 436.005 318.765 412.178C319.026 406.138 318.268 397.202 317.152 388.299C315.175 372.468 311.415 357.161 303.543 343.098C291.237 321.13 270.423 310.593 245.689 313.888C220.164 317.29 199.249 329.537 182.388 348.471C162.06 371.298 152.702 398.11 157.098 428.746C163.149 470.935 198.17 507.302 240.049 515.372L240.054 515.377ZM160.548 437.153C154.251 411.308 158.508 386.921 172.614 364.467C187.771 340.342 209.157 324.271 237.021 317.734C255.698 313.354 273.473 315.56 288.545 328.72C298.554 337.458 304.889 348.722 308.659 361.289C319.956 398.949 319.897 436.603 306.822 473.803C301.348 489.388 291.825 502.169 276.282 509.433C268.757 512.947 260.793 514.357 252.51 514.197C233.047 513.908 215.972 506.831 200.467 495.557C180.251 480.848 166.487 461.545 160.548 437.153Z" fill="black"/>
<path d="M479.651 356.13C470.037 374.556 467.442 394.548 467.127 414.977C466.95 420.355 467.33 425.696 467.88 431.027C469.455 446.19 472.783 460.846 479.838 474.524C490.616 495.412 510.981 506.276 534.087 503.264C550.291 501.149 564.423 494.312 576.665 483.764C601.314 462.528 613.24 435.786 608.77 403.152C604.908 374.952 589.734 353.588 565.791 338.441C553.635 330.75 540.32 326.065 525.888 326.349C504.588 326.76 489.372 337.495 479.651 356.13ZM551.584 333.789C585.275 347.221 610.105 381.9 607.734 420.927C605.453 458.447 573.984 494.291 536.944 500.283C513.075 504.145 492.833 493.725 481.542 471.688C474.855 458.64 471.661 444.625 470.315 430.135C469.84 425.039 469.396 419.928 469.578 417.033C469.765 397.298 472.056 380.202 478.935 363.949C491.973 333.153 520.472 321.387 551.578 333.789H551.584Z" fill="black"/>
<path d="M254.384 499.359C273.959 496.246 286.115 483.892 293.929 466.534C301.283 450.201 303.468 432.837 303.922 415.207C303.468 396.481 301.016 378.258 292.85 361.182C282.595 339.738 264.051 328.448 241.667 330.279C226.969 331.481 214.113 337.399 202.283 345.966C174.323 366.214 160.66 403.2 169.436 435.54C176.155 460.306 190.848 478.925 213.36 491.188C226.12 498.136 239.782 501.677 254.389 499.354L254.384 499.359ZM224.261 493.532C188.807 480.746 165.852 444.828 169.11 407.254C172.01 373.814 198.058 343.066 230.537 334.75C257.092 327.951 280.48 339.6 291.563 364.969C298.597 381.067 301.209 397.95 301.134 409.289C301.075 432.303 298.714 448.769 291.862 464.435C279.471 492.769 253.396 504.043 224.266 493.532H224.261Z" fill="black"/>
<path d="M493.652 371.582C486.628 385.271 484.545 400.054 483.931 415.65C484.134 418.556 484.289 421.931 484.625 425.285C485.902 438.024 488.759 450.297 495.206 461.54C506.972 482.065 528.838 489.885 551.014 481.756C579.369 471.362 599.233 441.549 596.754 410.822C594.532 383.236 580.998 362.764 555.986 350.554C531.21 338.457 506.24 347.066 493.657 371.587L493.652 371.582ZM558.823 355.014C582.243 368.115 594.698 388.678 594.442 415.645C594.18 443.039 581.175 463.591 556.889 476.094C540.658 484.453 524.021 484.634 508.954 472.735C499.19 465.022 493.924 454.276 490.671 442.457C488.215 433.537 487.034 424.452 487.077 416.921C487.061 401.902 489.058 388.956 494.549 376.773C506.764 349.667 532.903 340.518 558.823 355.014Z" fill="black"/>
<path d="M276.865 455.868C289.341 428.559 289.827 400.909 276.55 373.932C265.558 351.601 242.843 344.14 220.037 353.914C196.232 364.12 180.241 388.796 180.358 415.137C180.465 439.679 193.348 461.631 214.754 473.744C231.952 483.481 251.191 482.434 265.163 470.935C270.183 466.801 274.2 461.706 276.87 455.862L276.865 455.868ZM216.64 471.448C181.181 452.882 171.663 405.096 197.38 374.402C204.526 365.872 213.152 359.255 223.823 355.623C244.231 348.679 263.87 356.488 273.89 375.571C280.427 388.021 283.231 401.32 282.665 415.351C283.167 428.394 280.716 440.865 274.926 452.567C263.357 475.955 239.74 483.545 216.64 471.442V471.448Z" fill="black"/>
<path d="M513.059 387.535C508.37 396.123 506.383 405.353 506.271 415.095C506.527 418.224 506.591 421.381 507.077 424.479C508.706 434.952 512.263 444.684 520.275 451.969C531.502 462.175 547.023 462.325 560.113 452.834C585.67 434.306 585.077 394.227 558.976 376.474C542.435 365.22 522.636 370.001 513.059 387.54V387.535ZM557.619 380.57C570.48 389.351 576.195 402.196 575.309 417.541C574.422 432.88 567.404 444.924 553.389 452.065C540.544 458.613 526.46 454.768 518.379 442.804C512.723 434.429 510.25 425.125 510.608 415.276C510.367 406.383 512.05 398.19 516.365 390.574C525.52 374.423 542.301 370.102 557.619 380.565V380.57Z" fill="black"/>
<path d="M254.3 440.609C259.534 432.939 261.633 424.356 261.441 415.148C261.452 405.593 259.614 398.142 255.593 391.397C247.202 377.323 231.937 373.59 218.003 382.199C194.753 396.561 194.834 433.387 218.142 448.054C231.029 456.167 245.728 453.16 254.3 440.609ZM209.276 432.287C201.761 419.239 203.801 401.876 213.896 391.45C226.618 378.311 244.003 380.634 252.778 396.631C258.594 407.233 258.792 428.415 248.954 439.199C244.483 444.096 239.351 447.194 232.509 447.044C221.822 446.783 214.419 441.212 209.281 432.293L209.276 432.287Z" fill="black"/>
</g>
<defs>
<clipPath id="clip0_2021_445">
<rect width="493.647" height="493.647" fill="white" transform="matrix(0 1 -1 0 1228.29 167)"/>
</clipPath>
<clipPath id="clip1_2021_445">
<rect width="493.647" height="493.647" fill="white" transform="matrix(0 1 -1 0 1820.94 167)"/>
</clipPath>
<clipPath id="clip2_2021_445">
<rect width="493.647" height="493.647" fill="white" transform="matrix(0 1 -1 0 635.646 167)"/>
</clipPath>
</defs>
</svg>
