<svg width="8199" height="6513" viewBox="0 0 8199 6513" fill="none" xmlns="http://www.w3.org/2000/svg">
<rect width="8199" height="6513" fill="#F8F6F3"/>
<g opacity="0.5">
<line x1="4115.5" y1="568.005" x2="4113.5" y2="6080.01" stroke="#FF9C24" stroke-width="29"/>
<line x1="5240.5" y1="568.005" x2="5238.5" y2="6080.01" stroke="#FF9C24" stroke-width="29"/>
<line x1="2960.5" y1="568.005" x2="2958.5" y2="6080.01" stroke="#FF9C24" stroke-width="29"/>
<line x1="2136.5" y1="568.005" x2="2134.5" y2="6080.01" stroke="#FF9C24" stroke-width="29"/>
<line x1="6064.5" y1="568.005" x2="6062.5" y2="6080.01" stroke="#FF9C24" stroke-width="29"/>
<line x1="6351" y1="3729.5" x2="1847" y2="3729.5" stroke="#FF9C24" stroke-width="29"/>
<line x1="6351" y1="5687.5" x2="1847" y2="5687.5" stroke="#FF9C24" stroke-width="29"/>
<line x1="6351" y1="1744.5" x2="1847" y2="1744.5" stroke="#FF9C24" stroke-width="29"/>
<line x1="6078" y1="1170.5" x2="2120" y2="1170.5" stroke="#FF9C24" stroke-width="29"/>
<line x1="6078" y1="826.5" x2="2120" y2="826.5" stroke="#FF9C24" stroke-width="29"/>
<line x1="4780" y1="4149.5" x2="3418" y2="4149.5" stroke="#FF9C24" stroke-width="29"/>
<line x1="4780" y1="5169.5" x2="3418" y2="5169.5" stroke="#FF9C24" stroke-width="29"/>
<line x1="6351" y1="4656.5" x2="1847" y2="4656.5" stroke="#FF9C24" stroke-width="29"/>
<circle cx="4099.5" cy="3715.5" r="2099" stroke="#FF9C24" stroke-width="29"/>
</g>
<path d="M3166.66 2375L3166.66 2375C2954.11 2663.74 2843.74 3104.44 2843.68 3712.22C2843.68 4320.01 2952.26 4757.55 3163.94 5043.19L3175.59 5034.56L3163.94 5043.19C3375.68 5328.86 3690.49 5462.48 4102.97 5462.48C4515.45 5462.48 4828.55 5330.59 5038.48 5045.84L5026.81 5037.24L5038.48 5045.84C5248.4 4761.1 5355.19 4323.55 5355.19 3712.22C5355.19 3104.41 5246.67 2663.73 5035.84 2374.98C4825.02 2086.2 4511.93 1949.46 4103.03 1949.46C3694.14 1949.46 3379.25 2086.26 3166.66 2375ZM2135.5 3719.35C2135.5 2583.55 2945.84 1743.5 4103.03 1743.5C5260.22 1743.5 6063.5 2583.54 6063.5 3719.35C6063.5 4855.14 5260.55 5687.74 4103.03 5687.74C2945.51 5687.74 2135.5 4854.81 2135.5 3719.35Z" fill="#FF9C24" fill-opacity="0.2" stroke="#FF9C24" stroke-width="29"/>
<path d="M5245.79 1165.13V812H2945.76V1165.13H5245.79Z" fill="#FF9C24" fill-opacity="0.2"/>
<path d="M4604.69 4645.07C4604.69 4918.73 4382.8 5140.58 4109.09 5140.58C3835.38 5140.58 3613.5 4918.73 3613.5 4645.07C3613.5 4371.41 3835.38 4149.56 4109.09 4149.56C4382.8 4149.56 4604.69 4371.41 4604.69 4645.07Z" fill="#FF9C24" fill-opacity="0.2" stroke="#FF9C24" stroke-width="29"/>
</svg>
